<?xml version="1.0" encoding="utf-8" ?>
<svg baseProfile="full" height="200mm" version="1.1" viewBox="0,0,200,200" width="200mm" xmlns="http://www.w3.org/2000/svg" xmlns:ev="http://www.w3.org/2001/xml-events" xmlns:xlink="http://www.w3.org/1999/xlink"><defs /><rect fill="#1a1a1a" height="200" width="200" x="0" y="0" /><text alignment-baseline="middle" fill="#e1ed5e" style="dominant-baseline: central; font-size:9.0px; font-family:Arial;" text-anchor="middle" x="100.0" y="100.0">2024</text><line stroke="#e1ed5e" stroke-width="0.3" x1="100.0" x2="100.0" y1="15.0" y2="10.0" /><path d="M 100.0 14.0 a86.0,86.0 0 0,1 42.35913384403234,11.155469271406648" fill="none" id="id25" stroke="none" /><text fill="#e1ed5e" style="font-size:6.75px; font-family:Arial;" text-anchor="middle"><textPath startOffset="22.145653131862478" xlink:href="#id25">January</textPath></text><line stroke="#e1ed5e" stroke-width="0.3" x1="143.13028292997686" x2="145.6673583964461" y1="26.7553504044142" y2="22.446841604673864" /><path d="M 143.63769802327073 25.89364864446614 a86.0,86.0 0 0,1 29.32050498858742,28.57503671076993" fill="none" id="id26" stroke="none" /><text fill="#e1ed5e" style="font-size:6.75px; font-family:Arial;" text-anchor="middle"><textPath startOffset="20.669276256404974" xlink:href="#id26">February</textPath></text><line stroke="#e1ed5e" stroke-width="0.3" x1="172.87174338648825" x2="177.1583165268699" y1="56.24261187166439" y2="53.66864786411523" /><path d="M 173.72905801456457 55.72781907015455 a86.0,86.0 0 0,1 12.242430191666344,42.057860355516425" fill="none" id="id27" stroke="none" /><text fill="#e1ed5e" style="font-size:6.75px; font-family:Arial;" text-anchor="middle"><textPath startOffset="22.145653131862474" xlink:href="#id27">March</textPath></text><line stroke="#e1ed5e" stroke-width="0.3" x1="184.99686870605535" x2="189.99668451229388" y1="99.2704041080226" y2="99.22748670261217" /><path d="M 185.99683186730306 99.26182062694052 a86.0,86.0 0 0,1 -10.086455211305974,41.156179273409016" fill="none" id="id28" stroke="none" /><text fill="#e1ed5e" style="font-size:6.75px; font-family:Arial;" text-anchor="middle"><textPath startOffset="21.40746469413373" xlink:href="#id28">April</textPath></text><path d="M 119.31412917781788 108.2440532568976 l 21.834884448074348 9.320013788396315 a44.740784230447325,44.740784230447325 0 0,0 -0.3075739683269638,0.7037894313948332 l -21.671676597730418 -9.693465289566992" fill="#ff0000" stroke="none" /><path d="M 119.16976305983485 108.57439118712176 l 28.803135926986556 12.88327633904263 a52.553121057299535,52.553121057299535 0 0,0 -0.3754183132832291,0.820356766742287 l -28.57773314884827 -13.375822087999607" fill="#ffaa0f" stroke="none" /><line stroke="#e1ed5e" stroke-width="0.3" x1="174.33088141563837" x2="178.70328620479359" y1="141.23008692659167" y2="143.65538615756765" /><path d="M 175.20536237346943 141.71514677278685 a86.0,86.0 0 0,1 -30.301960400862466,31.631185727798858" fill="none" id="id29" stroke="none" /><text fill="#e1ed5e" style="font-size:6.75px; font-family:Arial;" text-anchor="middle"><textPath startOffset="22.145653131862474" xlink:href="#id29">May</textPath></text><path d="M 116.79662413953412 112.60449989151573 l 25.288410483271687 18.97689467508942 a52.61686632605898,52.61686632605898 0 0,0 -0.5483379596795663,0.7177919911055339 l -24.958920546237813 -19.40820757943583" fill="#ffac0f" stroke="none" /><path d="M 116.57777611688842 112.89097897827486 l 24.93034281518301 19.385985362916752 a52.580665309232636,52.580665309232636 0 0,0 -0.5601933299464777,0.7077859723151033 l -24.593883054594972 -19.811091279146538" fill="#ffab0f" stroke="none" /><path d="M 116.35404254752997 113.17365903436017 l 24.669879005123757 19.872308237421457 a52.67825065893845,52.67825065893845 0 0,0 -0.5733229402402499,0.6993607660869955 l -24.32510924564488 -20.292871285206942" fill="#ffad10" stroke="none" /><path d="M 115.89218393027572 113.72728997021213 l 23.9380325869175 20.677102409505178 a52.631818919965525,52.631818919965525 0 0,0 -0.5964662184136659,0.6786690647612357 l -23.57955530454525 -21.084983752077708" fill="#ffac0f" stroke="none" /><path d="M 115.6541949942343 113.99807769240083 l 23.549636477841467 21.058230152750546 a52.59168301000587,52.59168301000587 0 0,0 -0.6075649149915462,0.6678202712833604 l -23.18467386200804 -21.459387999591577" fill="#ffab0f" stroke="none" /><path d="M 115.41159269507618 114.26474011684316 l 23.18871672669264 21.463130014787176 a52.597191860392485,52.597191860392485 0 0,0 -0.6190042442928892,0.6573610565094186 l -22.81685664866349 -21.858032531241093" fill="#ffab0f" stroke="none" /><path d="M 115.16444852881244 114.52719865689866 l 23.26182797508699 22.284304996296182 a53.21339612506714,53.21339612506714 0 0,0 -0.6375806105074947,0.6542138741668063 l -22.87586056342869 -22.680341562530728" fill="#ffb811" stroke="none" /><path d="M 114.13192950727249 115.5334660781643 l 21.243704358058594 23.35055243876199 a52.56807365120608,52.56807365120608 0 0,0 -0.6727085648858838,0.6015401468478173 l -20.839730766349334 -23.711788115493196" fill="#ffab0f" stroke="none" /><path d="M 113.86319453409587 115.77377054828091 l 20.85479700901939 23.728930733979702 a52.59089603137921,52.59089603137921 0 0,0 -0.6832321721437358,0.5901596775586907 l -20.4443853571128 -24.08343454400311" fill="#ffab0f" stroke="none" /><path d="M 113.59037401385872 116.0094264158162 l 20.48971320068768 24.136830629759082 a52.66093712915193,52.66093712915193 0 0,0 -0.694185665925527,0.5791143720838408 l -20.07235320060026 -24.485007185754792" fill="#ffad10" stroke="none" /><path d="M 113.31354834802062 116.24036423190432 l 20.0005076372067 24.397367280339846 a52.547612206912916,52.547612206912916 0 0,0 -0.7025096022267491,0.5658920075083775 l -19.578747264624695 -24.737107581641627" fill="#ffaa0f" stroke="none" /><path d="M 113.03279911837588 116.46651593811092 l 19.562141447102878 24.716126673672072 a52.520854933606486,52.520854933606486 0 0,0 -0.7117577625409566,0.5534671411801901 l -19.134973739926693 -25.048294866473054" fill="#ffaa0f" stroke="none" /><path d="M 112.7482090630111 116.68781488649013 l 19.16746015079017 25.090820621121146 a52.57436948021935,52.57436948021935 0 0,0 -0.7218886809296323,0.5417187242433786 l -18.73391848094977 -25.41615837262854" fill="#ffab0f" stroke="none" /><path d="M 112.16784306229584 117.11559508785304 l 18.28254405480204 25.71668779879753 a52.553121057299535,52.553121057299535 0 0,0 -0.7397600266036888,0.5164099512283222 l -17.838388937024597 -26.026742565830975" fill="#ffaa0f" stroke="none" /><path d="M 111.5731344415666 117.5232005979908 l 17.38854305893832 26.328470447400285 a52.552334078672885,52.552334078672885 0 0,0 -0.7570398151061015,0.49070406185621246 l -16.93401761157521 -26.62308835096039" fill="#ffaa0f" stroke="none" /><path d="M 110.96478420261333 117.91015095944535 l 16.469159838135063 26.901134890181613 a52.5421033565263,52.5421033565263 0 0,0 -0.7732877642417068,0.4643370840650356 l -16.004939317335918 -27.17988597478257" fill="#ffaa0f" stroke="none" /><line stroke="#e1ed5e" stroke-width="0.3" x1="143.1302829299769" x2="145.66735839644613" y1="173.24464959558577" y2="177.55315839532614" /><path d="M 143.63769802327073 174.10635135553383 a86.0,86.0 0 0,1 -40.68552437913181,11.842963189579606" fill="none" id="id30" stroke="none" /><text fill="#e1ed5e" style="font-size:6.75px; font-family:Arial;" text-anchor="middle"><textPath startOffset="21.407464694133747" xlink:href="#id30">June</textPath></text><path d="M 110.65571695917076 118.09573695890943 l 16.018915686500257 27.203620905149773 a52.56964760845939,52.56964760845939 0 0,0 -0.7815542831088385,0.4512305757391946 l -15.549568935531022 -27.474598378165137" fill="#ffab0f" stroke="none" /><path d="M 110.34350942703117 118.27599006163325 l 15.546080312312284 27.46843431521105 a52.56256480081946,52.56256480081946 0 0,0 -0.7890787637562016,0.43768868876551237 l -15.072257360399988 -27.731255919409705" fill="#ffab0f" stroke="none" /><path d="M 110.02825361518725 118.45085714620011 l 15.07601546576088 27.73817040998952 a52.570434587086055,52.570434587086055 0 0,0 -0.7965952497415318,0.42414210208149045 l -14.597631400232794 -27.992882979793578" fill="#ffab0f" stroke="none" /><path d="M 109.71004243097381 118.62028667847754 l 29.130127292921426 55.86086003543263 a84.0,84.0 0 0,0 -1.2842911131456707,0.655768193308655 l -28.166908958062173 -56.352686180414125" fill="#4dd2ff" stroke="none" /><line stroke="#e1ed5e" stroke-width="0.3" x1="101.45913802915013" x2="101.54496967792366" y1="184.9874750549273" y2="189.98673829345242" /><path d="M 101.47630435890484 185.9873277026323 a86.0,86.0 0 0,1 -42.54439059252881,-10.42667462771756" fill="none" id="id31" stroke="none" /><text fill="#e1ed5e" style="font-size:6.75px; font-family:Arial;" text-anchor="middle"><textPath startOffset="22.145653131862474" xlink:href="#id31">July</textPath></text><line stroke="#e1ed5e" stroke-width="0.3" x1="58.13341422392154" x2="55.67067388415222" y1="173.97424548756322" y2="178.32567169271397" /><path d="M 57.64086615596768 174.84453072859336 a86.0,86.0 0 0,1 -31.369924170532247,-30.572349798747897" fill="none" id="id32" stroke="none" /><text fill="#e1ed5e" style="font-size:6.75px; font-family:Arial;" text-anchor="middle"><textPath startOffset="22.145653131862474" xlink:href="#id32">August</textPath></text><line stroke="#e1ed5e" stroke-width="0.3" x1="26.387840678322732" x2="22.057713659400548" y1="142.50000000000003" y2="145.00000000000006" /><path d="M 25.521815274538298 143.00000000000003 a86.0,86.0 0 0,1 -11.493303480769221,-40.785679425670985" fill="none" id="id33" stroke="none" /><text fill="#e1ed5e" style="font-size:6.75px; font-family:Arial;" text-anchor="middle"><textPath startOffset="21.40746469413373" xlink:href="#id33">September</textPath></text><line stroke="#e1ed5e" stroke-width="0.3" x1="15.003131293944662" x2="10.003315487706104" y1="100.72959589197737" y2="100.7725132973878" /><path d="M 14.003168132696942 100.73817937305945 a86.0,86.0 0 0,1 10.791469493833604,-42.45332614584628" fill="none" id="id34" stroke="none" /><text fill="#e1ed5e" style="font-size:6.75px; font-family:Arial;" text-anchor="middle"><textPath startOffset="22.145653131862435" xlink:href="#id34">October</textPath></text><line stroke="#e1ed5e" stroke-width="0.3" x1="26.387840678322718" x2="22.05771365940052" y1="57.49999999999999" y2="54.99999999999999" /><path d="M 25.521815274538284 56.99999999999999 a86.0,86.0 0 0,1 29.574782752854787,-30.34633250058573" fill="none" id="id35" stroke="none" /><text fill="#e1ed5e" style="font-size:6.75px; font-family:Arial;" text-anchor="middle"><textPath startOffset="21.40746469413373" xlink:href="#id35">November</textPath></text><line stroke="#e1ed5e" stroke-width="0.3" x1="56.869717070023135" x2="54.33264160355391" y1="26.7553504044142" y2="22.446841604673864" /><path d="M 56.362301976729285 25.89364864446614 a86.0,86.0 0 0,1 42.16139366436587,-11.88097634709845" fill="none" id="id36" stroke="none" /><text fill="#e1ed5e" style="font-size:6.75px; font-family:Arial;" text-anchor="middle"><textPath startOffset="22.145653131862474" xlink:href="#id36">December</textPath></text></svg>