<?xml version="1.0" encoding="utf-8" ?>
<svg baseProfile="full" height="200mm" version="1.1" viewBox="0,0,200,200" width="200mm" xmlns="http://www.w3.org/2000/svg" xmlns:ev="http://www.w3.org/2001/xml-events" xmlns:xlink="http://www.w3.org/1999/xlink"><defs /><rect fill="#1a1a1a" height="200" width="200" x="0" y="0" /><text alignment-baseline="middle" fill="#e1ed5e" style="dominant-baseline: central; font-size:9.0px; font-family:Arial;" text-anchor="middle" x="100.0" y="100.0">2024</text><line stroke="#e1ed5e" stroke-width="0.3" x1="100.0" x2="100.0" y1="15.0" y2="10.0" /><path d="M 100.0 14.0 a86.0,86.0 0 0,1 42.35913384403234,11.155469271406648" fill="none" id="id25" stroke="none" /><text fill="#e1ed5e" style="font-size:6.75px; font-family:Arial;" text-anchor="middle"><textPath startOffset="22.145653131862478" xlink:href="#id25">January</textPath></text><line stroke="#e1ed5e" stroke-width="0.3" x1="143.13028292997686" x2="145.6673583964461" y1="26.7553504044142" y2="22.446841604673864" /><path d="M 143.63769802327073 25.89364864446614 a86.0,86.0 0 0,1 29.32050498858742,28.57503671076993" fill="none" id="id26" stroke="none" /><text fill="#e1ed5e" style="font-size:6.75px; font-family:Arial;" text-anchor="middle"><textPath startOffset="20.669276256404974" xlink:href="#id26">February</textPath></text><line stroke="#e1ed5e" stroke-width="0.3" x1="172.87174338648825" x2="177.1583165268699" y1="56.24261187166439" y2="53.66864786411523" /><path d="M 173.72905801456457 55.72781907015455 a86.0,86.0 0 0,1 12.242430191666344,42.057860355516425" fill="none" id="id27" stroke="none" /><text fill="#e1ed5e" style="font-size:6.75px; font-family:Arial;" text-anchor="middle"><textPath startOffset="22.145653131862474" xlink:href="#id27">March</textPath></text><line stroke="#e1ed5e" stroke-width="0.3" x1="184.99686870605535" x2="189.99668451229388" y1="99.2704041080226" y2="99.22748670261217" /><path d="M 185.99683186730306 99.26182062694052 a86.0,86.0 0 0,1 -10.086455211305974,41.156179273409016" fill="none" id="id28" stroke="none" /><text fill="#e1ed5e" style="font-size:6.75px; font-family:Arial;" text-anchor="middle"><textPath startOffset="21.40746469413373" xlink:href="#id28">April</textPath></text><path d="M 119.31412917781788 108.2440532568976 l 21.831339204177752 9.318500534590092 a44.73692953313516,44.73692953313516 0 0,0 -0.3075474689132992,0.7037287955504645 l -21.668157853247486 -9.6918913999164" fill="#ff0000" stroke="none" /><path d="M 119.16976305983485 108.57439118712176 l 28.79845927563579 12.881184532378036 a52.54799790173107,52.54799790173107 0 0,0 -0.37538171552493227,0.8202767940355646 l -28.5730930952558 -13.37365030862829" fill="#ffaa0f" stroke="none" /><line stroke="#e1ed5e" stroke-width="0.3" x1="174.33088141563837" x2="178.70328620479359" y1="141.23008692659167" y2="143.65538615756765" /><path d="M 175.20536237346943 141.71514677278685 a86.0,86.0 0 0,1 -30.301960400862466,31.631185727798858" fill="none" id="id29" stroke="none" /><text fill="#e1ed5e" style="font-size:6.75px; font-family:Arial;" text-anchor="middle"><textPath startOffset="22.145653131862474" xlink:href="#id29">May</textPath></text><path d="M 116.79662413953412 112.60449989151573 l 25.284304504001053 18.973813471697518 a52.61173282042315,52.61173282042315 0 0,0 -0.548284461700631,0.7177219605337993 l -24.95486806494612 -19.405056345472193" fill="#ffac0f" stroke="none" /><path d="M 116.57777611688842 112.89097897827486 l 24.926294973944568 19.38283773708659 a52.57553768141284,52.57553768141284 0 0,0 -0.5601387003048366,0.7077169495474992 l -24.58988984299817 -19.807874630548774" fill="#ffab0f" stroke="none" /><path d="M 116.35404254752997 113.17365903436017 l 24.665873454364803 19.869081649268104 a52.67310718657108,52.67310718657108 0 0,0 -0.5732669613369298,0.6992924809269874 l -24.321159673789246 -20.28957641189358" fill="#ffad10" stroke="none" /><path d="M 115.89218393027572 113.72728997021213 l 23.934145863169217 20.67374515010264 a52.62668298653611,52.62668298653611 0 0,0 -0.5964080138740255,0.678602838679585 l -23.575726785336606 -21.08156026659352" fill="#ffac0f" stroke="none" /><path d="M 115.6541949942343 113.99807769240083 l 23.54581281643448 21.05481101114255 a52.586553593285544,52.586553593285544 0 0,0 -0.6075056574539418,0.6677551368691406 l -23.180909458138657 -21.455903723569364" fill="#ffab0f" stroke="none" /><path d="M 115.41159269507618 114.26474011684316 l 23.1849516663993 21.459645131188747 a52.592061549221896,52.592061549221896 0 0,0 -0.618943866841607,0.6572969377484726 l -22.813151965821433 -21.85448352888172" fill="#ffab0f" stroke="none" /><path d="M 115.16444852881244 114.52719865689866 l 23.258051044009182 22.28068678176128 a53.208165763245326,53.208165763245326 0 0,0 -0.6375179425042029,0.6541495712746793 l -22.872146300354174 -22.676659045103694" fill="#ffb811" stroke="none" /><path d="M 114.13192950727249 115.5334660781643 l 21.240255101736878 23.346761101843654 a52.56294806784403,52.56294806784403 0 0,0 -0.6726429732902974,0.6014814944385862 l -20.8363471016232 -23.707938126165626" fill="#ffab0f" stroke="none" /><path d="M 113.86319453409587 115.77377054828091 l 20.851410898046975 23.725077961272913 a52.585766742437485,52.585766742437485 0 0,0 -0.6831655352257582,0.5901021181760525 l -20.44106588305836 -24.079524211913682" fill="#ffab0f" stroke="none" /><path d="M 113.59037401385872 116.0094264158162 l 20.486386366930425 24.132911627958237 a52.65579646791397,52.65579646791397 0 0,0 -0.6941179008317153,0.5790578400324339 l -20.069094131936815 -24.48103165190254" fill="#ffad10" stroke="none" /><path d="M 113.31354834802062 116.24036423190432 l 19.997260233823443 24.39340597623268 a52.54248994579471,52.54248994579471 0 0,0 -0.7024411226618454,0.5658368452183054 l -19.575568340806345 -24.733091115244388" fill="#ffaa0f" stroke="none" /><path d="M 113.03279911837588 116.46651593811092 l 19.558965219505495 24.712113613861945 a52.51573701696101,52.51573701696101 0 0,0 -0.7116884050085048,0.5534132083434503 l -19.13186686986176 -25.044227873826188" fill="#ffaa0f" stroke="none" /><path d="M 112.7482090630111 116.68781488649013 l 19.16434800603509 25.08674672373556 a52.56924287462843,52.56924287462843 0 0,0 -0.7218182884820524,0.5416659004383978 l -18.730876728642272 -25.41203165143797" fill="#ffab0f" stroke="none" /><path d="M 112.16784306229584 117.11559508785304 l 18.279575590376293 25.712512281831724 a52.54799790173107,52.54799790173107 0 0,0 -0.7396879108925117,0.5163596088611322 l -17.83549258831002 -26.02251670649798" fill="#ffaa0f" stroke="none" /><path d="M 111.5731344415666 117.5232005979908 l 17.38571974992118 26.32419559770358 a52.54721105088302,52.54721105088302 0 0,0 -0.7569660156054929,0.49065622591153824 l -16.931268102058677 -26.61876566531901" fill="#ffaa0f" stroke="none" /><path d="M 110.96478420261333 117.91015095944535 l 16.466485805738092 26.896767059222498 a52.53698198985836,52.53698198985836 0 0,0 -0.7732123905903393,0.46429182435305033 l -16.002340658590317 -27.17547288411147" fill="#ffaa0f" stroke="none" /><line stroke="#e1ed5e" stroke-width="0.3" x1="143.1302829299769" x2="145.66735839644613" y1="173.24464959558577" y2="177.55315839532614" /><path d="M 143.63769802327073 174.10635135553383 a86.0,86.0 0 0,1 -40.68552437913181,11.842963189579606" fill="none" id="id30" stroke="none" /><text fill="#e1ed5e" style="font-size:6.75px; font-family:Arial;" text-anchor="middle"><textPath startOffset="21.407464694133747" xlink:href="#id30">June</textPath></text><path d="M 110.65571695917076 118.09573695890943 l 16.01631475846683 27.199203960731833 a52.56452176954013,52.56452176954013 0 0,0 -0.7814780771317371,0.4511865781978013 l -15.547044213474695 -27.470137436205807" fill="#ffab0f" stroke="none" /><path d="M 110.34350942703117 118.27599006163325 l 15.54355615668992 27.463974374086252 a52.557440111907674,52.557440111907674 0 0,0 -0.7890018309960428,0.43764601546030685 l -15.069810137537782 -27.726753304979702" fill="#ffab0f" stroke="none" /><path d="M 110.02825361518725 118.45085714620011 l 15.073567632709961 27.73366667288101 a52.56530862038818,52.56530862038818 0 0,0 -0.796517576411381,0.4241007454081528 l -14.595261240512027 -27.988337886011735" fill="#ffab0f" stroke="none" /><path d="M 109.71004243097381 118.62028667847754 l 29.125397549274833 55.85179012835021 a83.98977093897534,83.98977093897534 0 0,0 -1.2841347191912684,0.6556883374411862 l -28.162335608369983 -56.343536417464236" fill="#4dd2ff" stroke="none" /><path d="M 109.3889696526874 118.78422872680471 l 28.166908958062173 56.352686180414125 a84.0,84.0 0 0,0 -1.2953590029517223,0.6336249996111061 l -27.19538970584838 -56.82790493012245" fill="#4dd2ff" stroke="none" /><line stroke="#e1ed5e" stroke-width="0.3" x1="101.45913802915013" x2="101.54496967792366" y1="184.9874750549273" y2="189.98673829345242" /><path d="M 101.47630435890484 185.9873277026323 a86.0,86.0 0 0,1 -42.54439059252881,-10.42667462771756" fill="none" id="id31" stroke="none" /><text fill="#e1ed5e" style="font-size:6.75px; font-family:Arial;" text-anchor="middle"><textPath startOffset="22.145653131862474" xlink:href="#id31">July</textPath></text><line stroke="#e1ed5e" stroke-width="0.3" x1="58.13341422392154" x2="55.67067388415222" y1="173.97424548756322" y2="178.32567169271397" /><path d="M 57.64086615596768 174.84453072859336 a86.0,86.0 0 0,1 -31.369924170532247,-30.572349798747897" fill="none" id="id32" stroke="none" /><text fill="#e1ed5e" style="font-size:6.75px; font-family:Arial;" text-anchor="middle"><textPath startOffset="22.145653131862474" xlink:href="#id32">August</textPath></text><line stroke="#e1ed5e" stroke-width="0.3" x1="26.387840678322732" x2="22.057713659400548" y1="142.50000000000003" y2="145.00000000000006" /><path d="M 25.521815274538298 143.00000000000003 a86.0,86.0 0 0,1 -11.493303480769221,-40.785679425670985" fill="none" id="id33" stroke="none" /><text fill="#e1ed5e" style="font-size:6.75px; font-family:Arial;" text-anchor="middle"><textPath startOffset="21.40746469413373" xlink:href="#id33">September</textPath></text><line stroke="#e1ed5e" stroke-width="0.3" x1="15.003131293944662" x2="10.003315487706104" y1="100.72959589197737" y2="100.7725132973878" /><path d="M 14.003168132696942 100.73817937305945 a86.0,86.0 0 0,1 10.791469493833604,-42.45332614584628" fill="none" id="id34" stroke="none" /><text fill="#e1ed5e" style="font-size:6.75px; font-family:Arial;" text-anchor="middle"><textPath startOffset="22.145653131862435" xlink:href="#id34">October</textPath></text><line stroke="#e1ed5e" stroke-width="0.3" x1="26.387840678322718" x2="22.05771365940052" y1="57.49999999999999" y2="54.99999999999999" /><path d="M 25.521815274538284 56.99999999999999 a86.0,86.0 0 0,1 29.574782752854787,-30.34633250058573" fill="none" id="id35" stroke="none" /><text fill="#e1ed5e" style="font-size:6.75px; font-family:Arial;" text-anchor="middle"><textPath startOffset="21.40746469413373" xlink:href="#id35">November</textPath></text><line stroke="#e1ed5e" stroke-width="0.3" x1="56.869717070023135" x2="54.33264160355391" y1="26.7553504044142" y2="22.446841604673864" /><path d="M 56.362301976729285 25.89364864446614 a86.0,86.0 0 0,1 42.16139366436587,-11.88097634709845" fill="none" id="id36" stroke="none" /><text fill="#e1ed5e" style="font-size:6.75px; font-family:Arial;" text-anchor="middle"><textPath startOffset="22.145653131862474" xlink:href="#id36">December</textPath></text></svg>