<?xml version="1.0" encoding="utf-8" ?>
<svg baseProfile="full" height="200mm" version="1.1" viewBox="0,0,200,200" width="200mm" xmlns="http://www.w3.org/2000/svg" xmlns:ev="http://www.w3.org/2001/xml-events" xmlns:xlink="http://www.w3.org/1999/xlink"><defs /><rect fill="#1a1a1a" height="200" width="200" x="0" y="0" /><text alignment-baseline="middle" fill="#e1ed5e" style="dominant-baseline: central; font-size:9.0px; font-family:Arial;" text-anchor="middle" x="100.0" y="100.0">2025</text><line stroke="#e1ed5e" stroke-width="0.3" x1="100.0" x2="100.0" y1="15.0" y2="10.0" /><path d="M 100.0 14.0 a86.0,86.0 0 0,1 42.46469731375804,11.215312516191453" fill="none" id="id37" stroke="none" /><text fill="#e1ed5e" style="font-size:6.75px; font-family:Arial;" text-anchor="middle"><textPath startOffset="22.20632615414155" xlink:href="#id37">January</textPath></text><line stroke="#e1ed5e" stroke-width="0.3" x1="143.23703022742887" x2="145.7803849466894" y1="26.81831364943548" y2="22.513508569990506" /><path d="M 143.74570117128098 25.957352633546492 a86.0,86.0 0 0,1 28.547481713284135,27.462654790039103" fill="none" id="id38" stroke="none" /><text fill="#e1ed5e" style="font-size:6.75px; font-family:Arial;" text-anchor="middle"><textPath startOffset="19.985693538727396" xlink:href="#id38">February</textPath></text><line stroke="#e1ed5e" stroke-width="0.3" x1="172.23445277983987" x2="176.4835382374775" y1="55.19839476539836" y2="52.563006222186495" /><path d="M 173.08426987136738 54.67131705675599 a86.0,86.0 0 0,1 12.851231095245387,41.99856678651699" fill="none" id="id39" stroke="none" /><text fill="#e1ed5e" style="font-size:6.75px; font-family:Arial;" text-anchor="middle"><textPath startOffset="22.20632615414155" xlink:href="#id39">March</textPath></text><line stroke="#e1ed5e" stroke-width="0.3" x1="184.98032266829074" x2="189.97916517819016" y1="98.17113171792111" y2="98.06355123074" /><path d="M 185.9800911702706 98.14961562048488 a86.0,86.0 0 0,1 -9.607161424134198,41.387399972396054" fill="none" id="id40" stroke="none" /><text fill="#e1ed5e" style="font-size:6.75px; font-family:Arial;" text-anchor="middle"><textPath startOffset="21.466115282336823" xlink:href="#id40">April</textPath></text><line stroke="#e1ed5e" stroke-width="0.3" x1="174.80103733775053" x2="179.2010983576182" y1="140.37084112569926" y2="142.7455964860345" /><path d="M 175.68104954172406 140.8457921977663 a86.0,86.0 0 0,1 -30.038265399797805,32.042727171017184" fill="none" id="id41" stroke="none" /><text fill="#e1ed5e" style="font-size:6.75px; font-family:Arial;" text-anchor="middle"><textPath startOffset="22.206326154141568" xlink:href="#id41">May</textPath></text><line stroke="#e1ed5e" stroke-width="0.3" x1="143.8653032363475" x2="146.44561519142675" y1="172.8068346515853" y2="177.08958963109032" /><path d="M 144.38136562736335 173.6633856474863 a86.0,86.0 0 0,1 -40.68145358897372,12.25698825130547" fill="none" id="id42" stroke="none" /><text fill="#e1ed5e" style="font-size:6.75px; font-family:Arial;" text-anchor="middle"><textPath startOffset="21.466115282336833" xlink:href="#id42">June</textPath></text><path d="M 109.89434966115114 118.52300852407294 l 11.87316032093387 22.227499266157484 a46.199874198765954,46.199874198765954 0 0,0 -0.704678095618865,0.3686542744841999 l -11.48879132278851 -22.4285829595864" fill="#fffc17" stroke="none" /><path d="M 109.2508944713604 118.85261126421891 l 11.09575325618989 22.612291543293058 a46.18792308153118,46.18792308153118 0 0,0 -0.7167647154119364,0.3440906211177531 l -10.704875872777722 -22.79993644091037" fill="#fffc17" stroke="none" /><path d="M 108.92500713936063 119.00905698771935 l 10.704875872777722 22.79993644091037 a46.18792308153118,46.18792308153118 0 0,0 -0.7225814733959861,0.3317017140528641 l -10.310826403614316 -22.98082522529731" fill="#fffc17" stroke="none" /><path d="M 108.59647513512805 119.15986991738527 l 10.315718664668873 22.991729122991863 a46.199874198765954,46.199874198765954 0 0,0 -0.7283725324106705,0.31929711331323335 l -9.91842545760045 -23.16589078959955" fill="#fffc17" stroke="none" /><path d="M 107.93186726928326 119.44442032107085 l 9.505601433056473 23.30232004570912 a46.16653687174265,46.16653687174265 0 0,0 -0.738398415588306,0.29382396836914176 l -9.1030819414263 -23.46249085848433" fill="#fffb17" stroke="none" /><path d="M 107.59598834532513 119.57807347666477 l 9.113547869177003 23.48946597919141 a46.1954711555742,46.1954711555742 0 0,0 -0.7438125935099713,0.28124627735184854 l -8.707865054906756 -23.64286050664989" fill="#fffc17" stroke="none" /><path d="M 107.2578585660854 119.70592522655815 l 8.70090850203685 23.623972661228162 a46.175342958126166,46.175342958126166 0 0,0 -0.7482174280887549,0.2682841494116255 l -8.29297151331836 -23.770244351679747" fill="#fffb17" stroke="none" /><path d="M 106.57524785965236 119.94407469862006 l 7.882577138163492 23.90947240572604 a46.175342958126166,46.175342958126166 0 0,0 -0.757008807789914,0.24237031470409576 l -7.469846985282637 -24.041615567089842" fill="#fffb17" stroke="none" /><path d="M 105.88484417918355 120.15858648285463 l 7.152378909085574 24.500538061306905 a46.523183370274964,46.523183370274964 0 0,0 -0.7706650216701325,0.21779763308881317 l -6.7295827193108355 -24.620024487734238" fill="#feff18" stroke="none" /><path d="M 105.53697534728816 120.25689768951611 l 6.647322497293975 24.319077346597236 a46.21119630983047,46.21119630983047 0 0,0 -0.7691073694952292,0.20312824659179288 l -6.2277246849872485 -24.429896942492615" fill="#fffc17" stroke="none" /><path d="M 105.18746579009965 120.34920634021253 l 6.220111139677391 24.4000307976813 a46.180375007488166,46.180375007488166 0 0,0 -0.771974712176449,0.18973260220153804 l -5.79918314275773 -24.503484658196868" fill="#fffb17" stroke="none" /><path d="M 104.48393922423573 120.51570834832081 l 5.385535222926629 24.640849130153846 a46.222518420894986,46.222518420894986 0 0,0 -0.7787581757881195,0.16319634746031633 l -4.960585585709132 -24.729901458340702" fill="#fffc17" stroke="none" /><path d="M 103.7750983002368 120.6578951692458 l 4.528399231051453 24.780069063019113 a46.19043910621219,46.19043910621219 0 0,0 -0.7833701140873865,0.13619893562836016 l -4.101180145492016 -24.854346577168478" fill="#fffc17" stroke="none" /><path d="M 103.41894727170886 120.7198165907248 l 4.100975332260618 24.853105349313044 a46.18918109387168,46.18918109387168 0 0,0 -0.7855770940963089,0.12269098588891539 l -3.6725623745557927 -24.920014642549063" fill="#fffc17" stroke="none" /><path d="M 102.70371172650421 120.8252237178851 l 3.2400647716320274 24.9564600649633 a46.1659078655724,46.1659078655724 0 0,0 -0.7889370629947866,0.09552929129583865 l -2.810000285585861 -25.00853488498449" fill="#fffb17" stroke="none" /><path d="M 102.34483914955558 120.86867818915974 l 2.8118966091058386 25.02541184871501 a46.182891032169174,46.182891032169174 0 0,0 -0.7907553433182604,0.0819650245384684 l -2.3807086691819754 -25.070106241709237" fill="#fffb17" stroke="none" /><path d="M 100.90346689309514 120.98055641714683 l 1.0848855132146487 25.193509457958918 a46.21685736536273,46.21685736536273 0 0,0 -0.7951052369362382,0.027385032014746694 l -0.6510599246037582 -25.208451288399758" fill="#fffc17" stroke="none" /><line stroke="#e1ed5e" stroke-width="0.3" x1="102.19456741930631" x2="102.32365962044197" y1="184.97166512339345" y2="189.96999836594603" /><path d="M 102.22038585953345 185.97133177190398 a86.0,86.0 0 0,1 -42.740103519485714,-10.115201625700543" fill="none" id="id43" stroke="none" /><text fill="#e1ed5e" style="font-size:6.75px; font-family:Arial;" text-anchor="middle"><textPath startOffset="22.20632615414155" xlink:href="#id43">July</textPath></text><path d="M 100.54218724476979 120.99299961872073 l 0.6499556074455377 25.165693127072466 a46.17408494578566,46.17408494578566 0 0,0 -0.7947226467489077,0.013681871080436342 l -0.21667327080396215 -25.17315247543206" fill="#fffb17" stroke="none" /><path d="M 100.18074693466247 120.99922214144158 l 0.21683027257432133 25.19139297869995 a46.19232612472294,46.19232612472294 0 0,0 -0.7951544144735362,0.0 l 0.21683027257430398 -25.19139297869995" fill="#fffc17" stroke="none" /><path d="M 93.42475214034765 119.94407469862007 l -4.567183785578926 13.853204704397035 a35.58665308812077,35.58665308812077 0 0,0 -0.580113735977461,-0.1968060759974777 l 4.804967254493613 -13.772535641501433" fill="#ff5e08" stroke="none" /><path d="M 93.08242187328487 119.8279376855182 l -8.297944312546798 23.78449794613409 a46.19043910621219,46.19043910621219 0 0,0 -0.7484620435127496,-0.2683718597996687 l 8.706125916689274 -23.63813854529446" fill="#fffc17" stroke="none" /><path d="M 92.06813273071674 119.44442032107085 l -9.513679174839117 23.32212206724259 a46.18792308153118,46.18792308153118 0 0,0 -0.7335709797250747,-0.3066327290194503 l 9.913721614061656 -23.154904295203163" fill="#fffc17" stroke="none" /><path d="M 91.7346041902142 119.30500536409082 l -9.95976976659925 23.262456292978307 a46.30491822919787,46.30491822919787 0 0,0 -0.7300286232071997,-0.32002309485040453 l 10.358719064464193 -23.08756864483345" fill="#fffd17" stroke="none" /><path d="M 91.07499286063937 119.00905698771935 l -10.705677856286325 22.8016445572155 a46.18981010004193,46.18981010004193 0 0,0 -0.7167939990037209,-0.34410467902137526 l 11.096584523290288 -22.613985601694562" fill="#fffc17" stroke="none" /><path d="M 90.7491055286396 118.85261126421891 l -11.101572125892712 22.624149952103597 a46.201132211106454,46.201132211106454 0 0,0 -0.7109388254595806,-0.3564794859333509 l 11.489364859035053 -22.429702625260944" fill="#fffc17" stroke="none" /><line stroke="#e1ed5e" stroke-width="0.3" x1="58.666819895761336" x2="56.23545636021788" y1="174.27360380694188" y2="178.64263932499728" /><path d="M 58.180547188652646 175.14741091055294 a86.0,86.0 0 0,1 -31.652253787137756,-30.449443065178592" fill="none" id="id44" stroke="none" /><text fill="#e1ed5e" style="font-size:6.75px; font-family:Arial;" text-anchor="middle"><textPath startOffset="22.20632615414155" xlink:href="#id44">August</textPath></text><path d="M 88.24862548938628 117.40417183066458 l -14.086443656465606 20.86248597206004 a46.17282693344516,46.17282693344516 0 0,0 -0.6548694580774013,-0.45042518468416065 l 14.443469999165897 -20.61691999801078" fill="#fffb17" stroke="none" /><path d="M 86.51685102203217 116.09983520530335 l -16.1700054492558 19.308132204670837 a46.184778050679924,46.184778050679924 0 0,0 -0.6050965189699161,-0.515676380754801 l 16.499967444802774 -19.026931433693083" fill="#fffb17" stroke="none" /><path d="M 86.24171649860922 115.8653595955263 l -16.50244002914976 19.0297826934299 a46.18855208770144,46.18855208770144 0 0,0 -0.5961790595973271,-0.5260587035439723 l 16.827561441653675 -18.74290084811364" fill="#fffc17" stroke="none" /><path d="M 85.97065885151581 115.62618273729859 l -13.475075858397012 15.008830103545012 a41.17034086143893,41.17034086143893 0 0,0 -0.5232563106914864,-0.47798223352928904 l 13.731431718555353 -14.774655103429147" fill="#ffb410" stroke="none" /><path d="M 85.70375840098266 115.38237550388516 l -17.129711636179554 18.431113858561016 a46.16213382855089,46.16213382855089 0 0,0 -0.577387541181703,-0.5459559589005237 l 17.444435011752073 -18.13352326291456" fill="#fffb17" stroke="none" /><path d="M 85.44109423537348 115.13401014063109 l -17.480629499814857 18.17114750186719 a46.21434134068173,46.21434134068173 0 0,0 -0.5685465374422107,-0.5564424500710766 l 17.79082598963286 -17.867554948873543" fill="#fffc17" stroke="none" /><path d="M 84.9287848128048 114.62390073753433 l -18.057379701162013 17.521435733604225 a46.16087581621039,46.16087581621039 0 0,0 -0.5484207666073339,-0.5750169812304579 l 18.356307019148307 -17.208011635791266" fill="#fffb17" stroke="none" /><path d="M 84.67929136418377 114.36230785411682 l -18.398984366034153 17.24801926265381 a46.219373390043735,46.219373390043735 0 0,0 -0.5391238824798968,-0.5851124961719654 l 18.69315465650978 -16.9287555116805" fill="#fffc17" stroke="none" /><path d="M 84.43433777217949 114.09645910891817 l -18.654923532605107 16.894132925958 a46.16779488408315,46.16779488408315 0 0,0 -0.5283819491257193,-0.5936427211813351 l 18.942964331379166 -16.5705160350358" fill="#fffb17" stroke="none" /><path d="M 84.19399662182784 113.82643327865904 l -18.95148610879506 16.577970530902807 a46.179116995147666,46.179116995147666 0 0,0 -0.518212134348281,-0.6027977861366168 l 19.23404075271412 -16.249295645604658" fill="#fffb17" stroke="none" /><path d="M 83.95833913139862 113.55231037782056 l -19.256143322652285 16.267968331082997 a46.20805127897921,46.20805127897921 0 0,0 -0.5080773274971854,-0.6120118711408638 l 19.53331665004301 -15.93409520282837" fill="#fffc17" stroke="none" /><path d="M 83.50135304334701 112.99209946851258 l -19.797289155049285 15.589663236329079 a46.19861618642545,46.19861618642545 0 0,0 -0.4866104263998241,-0.6290095718673675 l 20.062706398667178 -15.24657567034846" fill="#fffc17" stroke="none" /><path d="M 83.28015986056508 112.70617746262583 l -20.074224889148436 15.255329102375073 a46.21308332834123,46.21308332834123 0 0,0 -0.47585993338261856,-0.6374921446849321 l 20.33384608922614 -14.907524078180833" fill="#fffc17" stroke="none" /><path d="M 83.06392112726016 112.41649034213515 l -20.3044237992058 14.88595346655189 a46.176600970466666,46.176600970466666 0 0,0 -0.464449106874795,-0.6450791875822514 l 20.557652698456202 -14.5342406735185" fill="#fffb17" stroke="none" /><path d="M 82.44556493220864 111.52570212397912 l -21.09466184882052 13.850106137660044 a46.23509854430001,46.23509854430001 0 0,0 -0.43107654458366557,-0.6690403701483839 l 21.32994325678123 -13.484944167590212" fill="#fffc17" stroke="none" /><line stroke="#e1ed5e" stroke-width="0.3" x1="26.63291911575756" x2="22.317208475507996" y1="142.92168965132927" y2="145.44649492493687" /><path d="M 25.769776987707644 143.4266507060508 a86.0,86.0 0 0,1 -11.730757126820373,-40.83630448921669" fill="none" id="id45" stroke="none" /><text fill="#e1ed5e" style="font-size:6.75px; font-family:Arial;" text-anchor="middle"><textPath startOffset="21.46611528233685" xlink:href="#id45">September</textPath></text><path d="M 81.87401531095188 110.60418214915194 l -21.772789911486772 12.73765999902475 a46.22503444557599,46.22503444557599 0 0,0 -0.39588000822973557,-0.6902501631737519 l 21.988821915868883 -12.360989989992692" fill="#fffc17" stroke="none" /><path d="M 81.69416730710424 110.29060199501025 l -21.981145594725273 12.356674755225718 a46.21622835919248,46.21622835919248 0 0,0 -0.3838666900961427,-0.6968295441418556 l 22.190588694272932 -11.97647469268604" fill="#fffc17" stroke="none" /><path d="M 81.51974371655577 109.97397251340807 l -22.15405550926403 11.956757380462808 a46.174713951955916,46.174713951955916 0 0,0 -0.3714810526483957,-0.70270215532087 l 22.356589070137314 -11.57364021005581" fill="#fffb17" stroke="none" /><path d="M 81.18737489456691 109.33194174019688 l -22.564894636885764 11.19324288582592 a46.18855208770144,46.18855208770144 0 0,0 -0.34717678708214744,-0.7152870117568195 l 22.75422468058263 -10.803166918103816" fill="#fffc17" stroke="none" /><path d="M 81.02952815118164 109.00673069616217 l -22.768998306296073 10.810181085662077 a46.204906248127955,46.204906248127955 0 0,0 -0.3349314075000554,-0.7214124548582997 l 22.951704330635955 -10.41664856352495" fill="#fffc17" stroke="none" /><path d="M 80.73074385275274 108.34839909993369 l -23.10740846795637 10.01127737269949 a46.182891032169174,46.182891032169174 0 0,0 -0.3097530898849358,-0.7321648049044296 l 23.27631253903361 -9.612038042128901" fill="#fffb17" stroke="none" /><path d="M 80.58989483394504 108.01547362559985 l -23.272824231629418 9.610597532880904 a46.179116995147666,46.179116995147666 0 0,0 -0.297079903902223,-0.7373279581397173 l 23.43480674978903 -9.208570206898383" fill="#fffb17" stroke="none" /><path d="M 80.32549172779594 107.34259656027581 l -59.0064349963314 22.021411699031233 a83.98175882106273,83.98175882106273 0 0,0 -0.4937957015481778,-1.3587136938455722 l 59.3767549588848 -21.002450208179543" fill="#4dd2ff" stroke="none" /><path d="M 80.20201598880116 107.00284435728193 l -23.7497531794319 8.400644477000576 a46.19169711855269,46.19169711855269 0 0,0 -0.2586936721635738,-0.7518849031310848 l 23.8908376825387 -7.990586870780195" fill="#fffc17" stroke="none" /><path d="M 79.86692584326677 105.97154293290107 l -24.147507591747104 7.162238473077274 a46.18729407536094,46.18729407536094 0 0,0 -0.21951581100132586,-0.7641633358645249 l 24.267216039634533 -6.745517661708154" fill="#fffb17" stroke="none" /><path d="M 79.67330655649465 105.27499134158121 l -24.48506270664383 6.354132025191097 a46.29611214281435,46.29611214281435 0 0,0 -0.19353689706029778,-0.7730836986962548 l 24.590810917999185 -5.931720487097451" fill="#fffd17" stroke="none" /><path d="M 79.58551787078972 104.9243191809786 l -24.483803957817916 5.905908594188109 a46.186036063020424,46.186036063020424 0 0,0 -0.17977240236677428,-0.7744548043151691 l 24.581836926115248 -5.483585132524365" fill="#fffb17" stroke="none" /><path d="M 79.50377843672027 104.57218783832718 l -24.583064759432414 5.4838590310350215 a46.18729407536094,46.18729407536094 0 0,0 -0.1664193335680537,-0.7774557225810373 l 24.67381813172491 -5.05988948903782" fill="#fffb17" stroke="none" /><path d="M 79.29508885075956 103.50808413554451 l -24.81103996728156 4.20379566317406 a46.16464985323189,46.16464985323189 0 0,0 -0.1260036542910737,-0.7846248755504094 l 24.879725375933923 -3.7760915579304375" fill="#fffb17" stroke="none" /><path d="M 79.23777060512086 103.15116336523772 l -24.907088285338308 3.7802445318737212 a46.19232612472294,46.19232612472294 0 0,0 -0.11254639056772354,-0.7871491934995304 l 24.96846872692263 -3.35094986639379" fill="#fffc17" stroke="none" /><path d="M 79.04373962182676 101.35467743843564 l -62.86878113451971 4.064032315306924 a84.0,84.0 0 0,0 -0.08085459644987347,-1.4437131346582497 l 62.92942208185711 -2.9812474643132365" fill="#4dd2ff" stroke="none" /><path d="M 79.0235259727143 100.99374915477108 l -25.16221864987534 1.1920465509576519 a46.19043910621219,46.19043910621219 0 0,0 -0.03078893476921212,-0.7945255988370623 l 25.17900971749575 -0.7587437051065928" fill="#fffc17" stroke="none" /><line stroke="#e1ed5e" stroke-width="0.3" x1="15.007084014347285" x2="10.007500721073583" y1="101.09737516637583" y2="101.16192664675087" /><path d="M 14.007167355692545 101.11028546245083 a86.0,86.0 0 0,1 10.666146001902534,-42.60595125391555" fill="none" id="id46" stroke="none" /><text fill="#e1ed5e" style="font-size:6.75px; font-family:Arial;" text-anchor="middle"><textPath startOffset="22.20632615414155" xlink:href="#id46">October</textPath></text><path d="M 79.16333360222342 97.38593545837743 l -25.022598271313022 -3.139210737053658 a46.218744383873485,46.218744383873485 0 0,0 0.1058277213571385,-0.7885394459782812 l 24.96485455089805 3.5694685250965983" fill="#fffc17" stroke="none" /><path d="M 79.26566170972629 96.67025291283419 l -24.884186983007474 -3.9961752317905637 a46.20301922961721,46.20301922961721 0 0,0 0.13286258682961538,-0.7841625083882219 l 24.811712534657634 4.423923528494614" fill="#fffc17" stroke="none" /><path d="M 79.3925641242962 95.95851677861259 l -8.603200180781155 -1.6872399550619344 a29.767088000958488,29.767088000958488 0 0,0 0.10293842329475819,-0.5019643098221752 l 8.572882461571401 1.835079921047512" fill="#ff0000" stroke="none" /><line stroke="#e1ed5e" stroke-width="0.3" x1="26.266209847984243" x2="21.928928074336255" y1="57.711370442889674" y2="55.22380399835377" /><path d="M 25.398753493254645 57.213857153982495 a86.0,86.0 0 0,1 29.58750427330803,-30.492523968695096" fill="none" id="id47" stroke="none" /><text fill="#e1ed5e" style="font-size:6.75px; font-family:Arial;" text-anchor="middle"><textPath startOffset="21.46611528233685" xlink:href="#id47">November</textPath></text><line stroke="#e1ed5e" stroke-width="0.3" x1="56.762969772571076" x2="54.21961505331055" y1="26.818313649435495" y2="22.513508569990535" /><path d="M 56.25429882871897 25.957352633546506 a86.0,86.0 0 0,1 42.265352541879196,-11.944610805530505" fill="none" id="id48" stroke="none" /><text fill="#e1ed5e" style="font-size:6.75px; font-family:Arial;" text-anchor="middle"><textPath startOffset="22.20632615414155" xlink:href="#id48">December</textPath></text></svg>