<?xml version="1.0" encoding="utf-8" ?>
<svg baseProfile="full" height="200mm" version="1.1" viewBox="0,0,200,200" width="200mm" xmlns="http://www.w3.org/2000/svg" xmlns:ev="http://www.w3.org/2001/xml-events" xmlns:xlink="http://www.w3.org/1999/xlink"><defs /><rect fill="#1a1a1a" height="200" width="200" x="0" y="0" /><text alignment-baseline="middle" fill="#e1ed5e" style="dominant-baseline: central; font-size:9.0px; font-family:Arial;" text-anchor="middle" x="100.0" y="100.0">2024</text><line stroke="#e1ed5e" stroke-width="0.3" x1="100.0" x2="100.0" y1="15.0" y2="10.0" /><path d="M 100.0 14.0 a86.0,86.0 0 0,1 42.35913384403234,11.155469271406648" fill="none" id="id25" stroke="none" /><text fill="#e1ed5e" style="font-size:6.75px; font-family:Arial;" text-anchor="middle"><textPath startOffset="22.145653131862478" xlink:href="#id25">January</textPath></text><line stroke="#e1ed5e" stroke-width="0.3" x1="143.13028292997686" x2="145.6673583964461" y1="26.7553504044142" y2="22.446841604673864" /><path d="M 143.63769802327073 25.89364864446614 a86.0,86.0 0 0,1 29.32050498858742,28.57503671076993" fill="none" id="id26" stroke="none" /><text fill="#e1ed5e" style="font-size:6.75px; font-family:Arial;" text-anchor="middle"><textPath startOffset="20.669276256404974" xlink:href="#id26">February</textPath></text><line stroke="#e1ed5e" stroke-width="0.3" x1="172.87174338648825" x2="177.1583165268699" y1="56.24261187166439" y2="53.66864786411523" /><path d="M 173.72905801456457 55.72781907015455 a86.0,86.0 0 0,1 12.242430191666344,42.057860355516425" fill="none" id="id27" stroke="none" /><text fill="#e1ed5e" style="font-size:6.75px; font-family:Arial;" text-anchor="middle"><textPath startOffset="22.145653131862474" xlink:href="#id27">March</textPath></text><line stroke="#e1ed5e" stroke-width="0.3" x1="184.99686870605535" x2="189.99668451229388" y1="99.2704041080226" y2="99.22748670261217" /><path d="M 185.99683186730306 99.26182062694052 a86.0,86.0 0 0,1 -10.086455211305974,41.156179273409016" fill="none" id="id28" stroke="none" /><text fill="#e1ed5e" style="font-size:6.75px; font-family:Arial;" text-anchor="middle"><textPath startOffset="21.40746469413373" xlink:href="#id28">April</textPath></text><path d="M 119.31412917781788 108.2440532568976 l 17.441283636053996 7.4446468613984385 a39.963679541803444,39.963679541803444 0 0,0 -0.27473339408419867,0.628643770665751 l -17.31091635995283 -7.742952701840034" fill="#ff0000" stroke="none" /><path d="M 119.16976305983485 108.57439118712176 l 23.00738822342126 10.29091211017252 a46.20402318921562,46.20402318921562 0 0,0 -0.33006291736093235,0.7212470413063281 l -22.82734084120527 -10.684348133693538" fill="#ff7b0b" stroke="none" /><line stroke="#e1ed5e" stroke-width="0.3" x1="174.33088141563837" x2="178.70328620479359" y1="141.23008692659167" y2="143.65538615756765" /><path d="M 175.20536237346943 141.71514677278685 a86.0,86.0 0 0,1 -30.301960400862466,31.631185727798858" fill="none" id="id29" stroke="none" /><text fill="#e1ed5e" style="font-size:6.75px; font-family:Arial;" text-anchor="middle"><textPath startOffset="22.145653131862474" xlink:href="#id29">May</textPath></text><path d="M 116.79662413953412 112.60449989151573 l 20.199893477457852 15.158376649387177 a46.25494167772578,46.25494167772578 0 0,0 -0.4820382154172505,0.6310034976157792 l -19.9367032846863 -15.502901060243834" fill="#ff7c0b" stroke="none" /><path d="M 116.57777611688842 112.89097897827486 l 19.91387594551777 15.485150383236459 a46.226025005238526,46.226025005238526 0 0,0 -0.4924911224606876,0.6222464448134332 l -19.64511839241552 -15.824716771964574" fill="#ff7c0b" stroke="none" /><path d="M 116.35404254752997 113.17365903436017 l 19.705822488721427 15.873615694931104 a46.30397429629113,46.30397429629113 0 0,0 -0.5039486003481033,0.6147353515284572 l -19.430427069134698 -16.209553328158055" fill="#ff7d0b" stroke="none" /><path d="M 115.89218393027572 113.72728997021213 l 19.121237716206576 16.516469723187402 a46.26688552070965,46.26688552070965 0 0,0 -0.5243336599535054,0.5965954544246965 l -18.834892992294485 -16.842277455423392" fill="#ff7d0b" stroke="none" /><path d="M 115.6541949942343 113.99807769240083 l 18.81099441184449 16.820907197419046 a46.234825731647696,46.234825731647696 0 0,0 -0.5341273820796546,0.587099558250939 l -18.51946932892296 -17.141344331227657" fill="#ff7c0b" stroke="none" /><path d="M 115.41159269507618 114.26474011684316 l 18.522698691085782 17.14433338063399 a46.23922609485227,46.23922609485227 0 0,0 -0.5441788086615637,0.5778990368643446 l -18.225664048687957 -17.45977387744283" fill="#ff7c0b" stroke="none" /><path d="M 115.16444852881244 114.52719865689866 l 18.58109854308703 17.8002720828236 a46.731438150450515,46.731438150450515 0 0,0 -0.5599165066599078,0.5745236617850643 l -18.272795235276316 -18.116618436676404" fill="#ff850c" stroke="none" /><path d="M 114.13192950727249 115.5334660781643 l 16.9690604074643 18.651969929656193 a46.21596703219949,46.21596703219949 0 0,0 -0.591421269558561,0.5288525461237883 l -16.646374111082363 -18.940518005663368" fill="#ff7c0b" stroke="none" /><path d="M 113.86319453409587 115.77377054828091 l 16.658408734501734 18.954211197949263 a46.23419710833275,46.23419710833275 0 0,0 -0.6006494146591438,0.5188266585410188 l -16.330579840079736 -19.237381988955" fill="#ff7c0b" stroke="none" /><path d="M 113.59037401385872 116.0094264158162 l 16.366786845355183 19.280033750128258 a46.290144583362434,46.290144583362434 0 0,0 -0.6102047664776883,0.5090545188802615 l -16.0334077447156 -19.55815045292039" fill="#ff7d0b" stroke="none" /><path d="M 113.31354834802062 116.24036423190432 l 15.976018897427714 19.48814539052521 a46.19962282601104,46.19962282601104 0 0,0 -0.6176432627752614,0.4975296918192197 l -15.6391248642972 -19.759523376137835" fill="#ff7b0b" stroke="none" /><path d="M 113.03279911837588 116.46651593811092 l 15.62586045824571 19.742764232405733 a46.17824963330307,46.17824963330307 0 0,0 -0.6258033628471361,0.4866284800877363 l -15.284647150763343 -20.008093764114264" fill="#ff7b0b" stroke="none" /><path d="M 112.7482090630111 116.68781488649013 l 15.310596667809554 20.04206251491844 a46.220996018719006,46.220996018719006 0 0,0 -0.6346517167411903,0.47625447996935777 l -14.964291962157597 -20.301936022151814" fill="#ff7c0b" stroke="none" /><path d="M 112.16784306229584 117.11559508785304 l 14.603742795468605 20.541993118641564 a46.20402318921562,46.20402318921562 0 0,0 -0.6503874315358874,0.4540209388454763 l -14.24896027275896 -20.78965887329216" fill="#ff7b0b" stroke="none" /><path d="M 111.5731344415666 117.5232005979908 l 13.889632080715128 21.03067327278994 a46.20339456590068,46.20339456590068 0 0,0 -0.6655805092706362,0.43142124479364824 l -13.526565939187481 -21.266008359287483" fill="#ff7b0b" stroke="none" /><path d="M 110.96478420261333 117.91015095944535 l 13.155246535309935 21.4881065602701 a46.195222462806456,46.195222462806456 0 0,0 -0.6798776222283608,0.40824697767739515 l -12.784436156524137 -21.710767538483417" fill="#ff7b0b" stroke="none" /><line stroke="#e1ed5e" stroke-width="0.3" x1="143.1302829299769" x2="145.66735839644613" y1="173.24464959558577" y2="177.55315839532614" /><path d="M 143.63769802327073 174.10635135553383 a86.0,86.0 0 0,1 -40.68552437913181,11.842963189579606" fill="none" id="id30" stroke="none" /><text fill="#e1ed5e" style="font-size:6.75px; font-family:Arial;" text-anchor="middle"><textPath startOffset="21.407464694133747" xlink:href="#id30">June</textPath></text><path d="M 110.65571695917076 118.09573695890943 l 12.795600210054035 21.72972654207241 a46.21722427882936,46.21722427882936 0 0,0 -0.6871126444969422,0.39670467026390677 l -12.420695097696694 -21.94617810961249" fill="#ff7c0b" stroke="none" /><path d="M 110.34350942703117 118.27599006163325 l 12.417908452903495 21.941254375274053 a46.211566668994905,46.211566668994905 0 0,0 -0.6937364269910836,0.3848039017463833 l -12.039427837756318 -22.15119119245358" fill="#ff7c0b" stroke="none" /><path d="M 110.02825361518725 118.45085714620011 l 12.042429739675667 22.156714353873923 a46.2178529021443,46.2178529021443 0 0,0 -0.7003351287521049,0.37288900952749715 l -11.660305795137008 -22.36017383112399" fill="#ff7c0b" stroke="none" /><path d="M 109.71004243097381 118.62028667847754 l 23.268582605895478 44.6205752244234 a71.3231822309143,71.3231822309143 0 0,0 -1.0904729654813385,0.5568032661022695 l -22.49918241870056 -45.013436442198504" fill="#37ff76" stroke="none" /><path d="M 109.3889696526874 118.78422872680471 l 22.50283611526962 45.02074628285093 a71.33135433400852,71.33135433400852 0 0,0 -1.0999965717773488,0.5380634447874503 l -21.726679294230202 -45.4004034777356" fill="#37ff76" stroke="none" /><path d="M 108.73861861582097 119.09545874513695 l 20.941765249906084 45.76153645793998 a71.32569672417407,71.32569672417407 0 0,0 -1.1177300392338094,0.4999464295971429 l -20.153121807816646 -46.11428663844698" fill="#37ff76" stroke="none" /><path d="M 108.4095320186766 119.2426549942271 l 20.141793748042335 46.088365820795424 a71.29740867500175,71.29740867500175 0 0,0 -1.1257009498985717,0.48049479719553706 l -19.347657722973334 -46.42733526765036" fill="#37ff76" stroke="none" /><path d="M 107.74402155503746 119.51999308798841 l 9.276923495875364 23.38390734456165 a46.1568764405951,46.1568764405951 0 0,0 -0.7390105779041432,0.28586516728868755 l -8.874140655477692 -23.539712399988378" fill="#ff7b0b" stroke="none" /><path d="M 107.407793817531 119.65005319985036 l 8.924699241885369 23.673825057156154 a46.30020255640148,46.30020255640148 0 0,0 -0.7461186107475039,0.27398508868610555 l -8.516991479483739 -23.823540994850983" fill="#ff7d0b" stroke="none" /><path d="M 107.06938296918513 119.77432235084164 l 16.939389692604042 47.3824877882783 a71.31941049102466,71.31941049102466 0 0,0 -1.1563736958736006,0.4022467984210035 l -16.12351022468542 -47.66629301926789" fill="#37ff76" stroke="none" /><path d="M 106.72888874123015 119.89276391827305 l 16.147479863981555 47.73715499872113 a71.39421666550255,71.39421666550255 0 0,0 -1.1643283748278963,0.3827378633060419 l -15.325628751505924 -48.00731378342919" fill="#37ff77" stroke="none" /><path d="M 106.38641147887787 120.00534299687104 l 15.296188005706806 47.91509106653364 a71.29740867500175,71.29740867500175 0 0,0 -1.169139549010322,0.3622024208568258 l -14.47140782382486 -48.17061007519712" fill="#37ff76" stroke="none" /><path d="M 106.0420521117495 120.11202640906438 l 14.486419657667005 48.220579587723265 a71.3495844101418,71.3495844101418 0 0,0 -1.1760449649668563,0.3423295494388821 l -13.656514680318542 -48.462152831464664" fill="#37ff77" stroke="none" /><path d="M 105.69591212413111 120.21278271476187 l 13.650206033796637 48.43976567053371 a71.326325347489,71.326325347489 0 0,0 -1.18136297899237,0.32198573321219587 l -12.816661653869572 -48.666951897890044" fill="#37ff76" stroke="none" /><path d="M 105.3480935250658 120.30758222061773 l 12.819863497946084 48.67910982137 a71.33889781378781,71.33889781378781 0 0,0 -1.1869253944415112,0.30171179383137753 l -11.982332810279177 -48.89200684703665" fill="#37ff76" stroke="none" /><path d="M 104.9986988182912 120.39639698878246 l 11.980686844334556 48.88529074429535 a71.33198295732346,71.33198295732346 0 0,0 -1.1918142490333203,0.28126491762991085 l -11.139740441561358 -49.08375180557148" fill="#37ff76" stroke="none" /><path d="M 104.64783097203109 120.47920084513623 l 11.156853460337032 49.159154923860974 a71.40930362506111,71.40930362506111 0 0,0 -1.1977638352286624,0.2610470530944044 l -10.311327208489235 -49.3434334350891" fill="#37ff78" stroke="none" /><path d="M 104.29559338865022 120.5559693870025 l 10.291267761618998 49.24744172021351 a71.31123838793043,71.31123838793043 0 0,0 -1.2004177805368106,0.24011717576805114 l -9.444353495551228 -49.41684829264442" fill="#37ff76" stroke="none" /><path d="M 103.94208987418118 120.62667999033965 l 9.44305544861554 49.410056362574466 a71.3043235314661,71.3043235314661 0 0,0 -1.2042460430594784,0.21945374459178538 l -8.593474672005003 -49.56487828109762" fill="#37ff76" stroke="none" /><path d="M 103.58742460773223 120.69131181640829 l 8.594011609802386 49.56797519562725 a71.30746664804079,71.30746664804079 0 0,0 -1.2078890517619447,0.19875768381173003 l -7.741845054987369 -49.70819887793465" fill="#37ff76" stroke="none" /><path d="M 103.2317021107853 120.74984581791261 l 3.902459508149528 25.056589477881285 a46.35866452469092,46.35866452469092 0 0,0 -0.7873796082625177,0.1157176875086416 l -3.4717547942793248 -25.11988823868881" fill="#ff7e0b" stroke="none" /><path d="M 102.875027216393 120.80226474461374 l 6.8926467456379985 49.87175828330065 a71.34581267025214,71.34581267025214 0 0,0 -1.2146528735638695,0.1572611326805537 l -6.035516050183354 -49.9827310121816" fill="#37ff77" stroke="none" /><path d="M 102.51750503828377 120.84855314841334 l 6.034536368720827 49.97461784429141 a71.33764056715793,71.33764056715793 0 0,0 -1.2170340704628135,0.13637120608550568 l -5.175766396657215 -50.07084481088389" fill="#37ff76" stroke="none" /><path d="M 102.15924093988457 120.88869738790638 l 5.17486149719229 50.06209072941936 a71.32883984074876,71.32883984074876 0 0,0 -1.2190453220040498,0.11544485943042679 l -4.314716611803225 -50.14354734435497" fill="#37ff76" stroke="none" /><path d="M 101.44090949804482 120.95050786540614 l 3.4537746206889683 50.21712498548175 a71.3357546972131,71.3357546972131 0 0,0 -1.2224082963183411,0.07353704759893426 l -2.591221972238162 -50.26901401090538" fill="#37ff76" stroke="none" /><line stroke="#e1ed5e" stroke-width="0.3" x1="101.45913802915013" x2="101.54496967792366" y1="184.9874750549273" y2="189.98673829345242" /><path d="M 101.47630435890484 185.9873277026323 a86.0,86.0 0 0,1 -42.54439059252881,-10.42667462771756" fill="none" id="id31" stroke="none" /><text fill="#e1ed5e" style="font-size:6.75px; font-family:Arial;" text-anchor="middle"><textPath startOffset="22.145653131862474" xlink:href="#id31">July</textPath></text><path d="M 99.63950707515114 120.99690560180557 l -0.8639938343434822 50.323309362752454 a71.33072571069359,71.33072571069359 0 0,0 -1.224125897324078,-0.0315291408415665 l 1.7277330457383042 -50.30106250456084" fill="#37ff76" stroke="none" /><path d="M 99.27912038922189 120.98762331915562 l -1.1682293623572668 34.0117232349892 a55.03178040092198,55.03178040092198 0 0,0 -0.943858554699226,-0.040533347512194666 l 1.7519136776573314 -33.986657319051176" fill="#e5ff1a" stroke="none" /><path d="M 98.91894614982273 120.97215588758144 l -2.593681388894055 50.31672603699193 a71.38353006914856,71.38353006914856 0 0,0 -1.2232269742907835,-0.0735862972327958 l 3.457052715317285 -50.26478776193444" fill="#37ff77" stroke="none" /><path d="M 98.55909050195518 120.95050786540614 l -1.7244071729612314 25.07250183950364 a46.131731507997486,46.131731507997486 0 0,0 -0.7895797442227833,-0.0611184658541491 l 2.154555911959251 -25.039205606654438" fill="#ff7a0b" stroke="none" /><path d="M 98.19965949673042 120.92268563240118 l -2.161130759285573 25.11561529884313 a46.2084235524202,46.2084235524202 0 0,0 -0.7897249232501787,-0.07478777130569932 l 2.591955245920767 -25.07481577203225" fill="#ff7c0b" stroke="none" /><path d="M 97.84075906011543 120.88869738790638 l -5.177770102615268 50.090228848412444 a71.35712788992107,71.35712788992107 0 0,0 -1.217366527992335,-0.13640845864512863 l 6.0368725322084025 -49.99396462926035" fill="#37ff77" stroke="none" /><path d="M 97.48249496171623 120.84855314841334 l -6.038229014233441 50.00519824633909 a71.36844310959,71.36844310959 0 0,0 -1.215038153752551,-0.15731101491455687 l 6.895744989876786 -49.89417563522414" fill="#37ff77" stroke="none" /><path d="M 97.12497278360702 120.80226474461374 l -6.894970428817082 49.888571297243274 a71.36278549975555,71.36278549975555 0 0,0 -1.2120625705555592,-0.1781314582047268 l 7.750358104980326 -49.762858765739665" fill="#37ff77" stroke="none" /><path d="M 96.76829788921471 120.74984581791261 l -7.750841801002656 49.76596444118314 a71.36592861633025,71.36592861633025 0 0,0 -1.2088793487779916,-0.19892063680887137 l 8.603998652833711 -49.62557780587859" fill="#37ff77" stroke="none" /><path d="M 96.41257539226777 120.69131181640829 l -8.601636126525221 49.61195138194816 a71.35209890340155,71.35209890340155 0 0,0 -1.2050529128222016,-0.2196007831407916 l 9.45202377289848 -49.456982424876" fill="#37ff77" stroke="none" /><path d="M 95.70440661134978 120.55596938700252 l -12.886780165950636 61.667908161007546 a84.0,84.0 0 0,0 -1.4089503335234541,-0.30707416746512495 l 13.943492916093227 -61.43760253540871" fill="#4dd2ff" stroke="none" /><line stroke="#e1ed5e" stroke-width="0.3" x1="58.13341422392154" x2="55.67067388415222" y1="173.97424548756322" y2="178.32567169271397" /><path d="M 57.64086615596768 174.84453072859336 a86.0,86.0 0 0,1 -31.369924170532247,-30.572349798747897" fill="none" id="id32" stroke="none" /><text fill="#e1ed5e" style="font-size:6.75px; font-family:Arial;" text-anchor="middle"><textPath startOffset="22.145653131862474" xlink:href="#id32">August</textPath></text><path d="M 83.20337586046588 112.60449989151573 l -17.16400158406917 12.88018677486322 a42.459314102116366,42.459314102116366 0 0,0 -0.43247435887135616,-0.5867345269145263 l 17.382577962524355 -12.583645938679814" fill="#ff3304" stroke="none" /><line stroke="#e1ed5e" stroke-width="0.3" x1="26.387840678322732" x2="22.057713659400548" y1="142.50000000000003" y2="145.00000000000006" /><path d="M 25.521815274538298 143.00000000000003 a86.0,86.0 0 0,1 -11.493303480769221,-40.785679425670985" fill="none" id="id33" stroke="none" /><text fill="#e1ed5e" style="font-size:6.75px; font-family:Arial;" text-anchor="middle"><textPath startOffset="21.40746469413373" xlink:href="#id33">September</textPath></text><line stroke="#e1ed5e" stroke-width="0.3" x1="15.003131293944662" x2="10.003315487706104" y1="100.72959589197737" y2="100.7725132973878" /><path d="M 14.003168132696942 100.73817937305945 a86.0,86.0 0 0,1 10.791469493833604,-42.45332614584628" fill="none" id="id34" stroke="none" /><text fill="#e1ed5e" style="font-size:6.75px; font-family:Arial;" text-anchor="middle"><textPath startOffset="22.145653131862435" xlink:href="#id34">October</textPath></text><line stroke="#e1ed5e" stroke-width="0.3" x1="26.387840678322718" x2="22.05771365940052" y1="57.49999999999999" y2="54.99999999999999" /><path d="M 25.521815274538284 56.99999999999999 a86.0,86.0 0 0,1 29.574782752854787,-30.34633250058573" fill="none" id="id35" stroke="none" /><text fill="#e1ed5e" style="font-size:6.75px; font-family:Arial;" text-anchor="middle"><textPath startOffset="21.40746469413373" xlink:href="#id35">November</textPath></text><line stroke="#e1ed5e" stroke-width="0.3" x1="56.869717070023135" x2="54.33264160355391" y1="26.7553504044142" y2="22.446841604673864" /><path d="M 56.362301976729285 25.89364864446614 a86.0,86.0 0 0,1 42.16139366436587,-11.88097634709845" fill="none" id="id36" stroke="none" /><text fill="#e1ed5e" style="font-size:6.75px; font-family:Arial;" text-anchor="middle"><textPath startOffset="22.145653131862474" xlink:href="#id36">December</textPath></text></svg>