<?xml version="1.0" encoding="utf-8" ?>
<svg baseProfile="full" height="200mm" version="1.1" viewBox="0,0,200,200" width="200mm" xmlns="http://www.w3.org/2000/svg" xmlns:ev="http://www.w3.org/2001/xml-events" xmlns:xlink="http://www.w3.org/1999/xlink"><defs /><rect fill="#1a1a1a" height="200" width="200" x="0" y="0" /><text alignment-baseline="middle" fill="#e1ed5e" style="dominant-baseline: central; font-size:9.0px; font-family:Arial;" text-anchor="middle" x="100.0" y="100.0">2024</text><line stroke="#e1ed5e" stroke-width="0.3" x1="100.0" x2="100.0" y1="15.0" y2="10.0" /><path d="M 100.0 14.0 a86.0,86.0 0 0,1 42.35913384403234,11.155469271406648" fill="none" id="id25" stroke="none" /><text fill="#e1ed5e" style="font-size:6.75px; font-family:Arial;" text-anchor="middle"><textPath startOffset="22.145653131862478" xlink:href="#id25">January</textPath></text><line stroke="#e1ed5e" stroke-width="0.3" x1="143.13028292997686" x2="145.6673583964461" y1="26.7553504044142" y2="22.446841604673864" /><path d="M 143.63769802327073 25.89364864446614 a86.0,86.0 0 0,1 29.32050498858742,28.57503671076993" fill="none" id="id26" stroke="none" /><text fill="#e1ed5e" style="font-size:6.75px; font-family:Arial;" text-anchor="middle"><textPath startOffset="20.669276256404974" xlink:href="#id26">February</textPath></text><line stroke="#e1ed5e" stroke-width="0.3" x1="172.87174338648825" x2="177.1583165268699" y1="56.24261187166439" y2="53.66864786411523" /><path d="M 173.72905801456457 55.72781907015455 a86.0,86.0 0 0,1 12.242430191666344,42.057860355516425" fill="none" id="id27" stroke="none" /><text fill="#e1ed5e" style="font-size:6.75px; font-family:Arial;" text-anchor="middle"><textPath startOffset="22.145653131862474" xlink:href="#id27">March</textPath></text><line stroke="#e1ed5e" stroke-width="0.3" x1="184.99686870605535" x2="189.99668451229388" y1="99.2704041080226" y2="99.22748670261217" /><path d="M 185.99683186730306 99.26182062694052 a86.0,86.0 0 0,1 -10.086455211305974,41.156179273409016" fill="none" id="id28" stroke="none" /><text fill="#e1ed5e" style="font-size:6.75px; font-family:Arial;" text-anchor="middle"><textPath startOffset="21.40746469413373" xlink:href="#id28">April</textPath></text><path d="M 119.31412917781788 108.2440532568976 l 21.797580804610245 9.304091081213246 a44.70022446689113,44.70022446689113 0 0,0 -0.3072951371073963,0.703151410997522 l -21.634651785485882 -9.676904561986612" fill="#ff0000" stroke="none" /><path d="M 119.16976305983485 108.57439118712176 l 28.7539274268993 12.861266002860454 a52.49921436588103,52.49921436588103 0 0,0 -0.37503322560889385,0.8195152806766042 l -28.52890973643535 -13.352970265751747" fill="#ffaa0f" stroke="none" /><line stroke="#e1ed5e" stroke-width="0.3" x1="174.33088141563837" x2="178.70328620479359" y1="141.23008692659167" y2="143.65538615756765" /><path d="M 175.20536237346943 141.71514677278685 a86.0,86.0 0 0,1 -30.301960400862466,31.631185727798858" fill="none" id="id29" stroke="none" /><text fill="#e1ed5e" style="font-size:6.75px; font-family:Arial;" text-anchor="middle"><textPath startOffset="22.145653131862474" xlink:href="#id29">May</textPath></text><path d="M 116.79662413953412 112.60449989151573 l 25.245206689329695 18.94447374267282 a52.56285072951739,52.56285072951739 0 0,0 -0.547775045084559,0.7170551178308681 l -24.91627966689083 -19.375049773744564" fill="#ffab0f" stroke="none" /><path d="M 116.57777611688842 112.89097897827486 l 24.887750759244863 19.3528655226035 a52.526711560044895,52.526711560044895 0 0,0 -0.5596185078090472,0.7070597033224174 l -24.55186582079425 -19.7772451698406" fill="#ffab0f" stroke="none" /><path d="M 116.35404254752997 113.17365903436017 l 24.627731936615195 19.838357542465396 a52.62413019079686,52.62413019079686 0 0,0 -0.5727339209479615,0.6986422583236009 l -24.283551196428608 -20.25820208248749" fill="#ffad10" stroke="none" /><path d="M 115.89218393027572 113.72728997021213 l 23.89713583589608 20.641776770022673 a52.57777777777778,52.57777777777778 0 0,0 -0.5958537806073934,0.677972222961355 l -23.539270991330103 -21.04896127079532" fill="#ffac0f" stroke="none" /><path d="M 115.6541949942343 113.99807769240083 l 23.509403279219892 21.02225337845292 a52.537710437710444,52.537710437710444 0 0,0 -0.6069413973662915,0.6671349161889943 l -23.145064181011723 -21.422725870199585" fill="#ffab0f" stroke="none" /><path d="M 115.41159269507618 114.26474011684316 l 23.149100138694678 21.42646149237758 a52.54320987654321,52.54320987654321 0 0,0 -0.6183689427504278,0.6566863882870194 l -22.77787536220799 -21.820689340609096" fill="#ffab0f" stroke="none" /><path d="M 115.16444852881244 114.52719865689866 l 23.22208648072876 22.246233543689968 a53.158361391694726,53.158361391694726 0 0,0 -0.6369212073974163,0.6535372684856225 l -22.836778472180534 -22.641593504243325" fill="#ffb711" stroke="none" /><path d="M 114.13192950727249 115.5334660781643 l 21.207410711755394 23.310659363763737 a52.51414141414142,52.51414141414142 0 0,0 -0.6720183992534587,0.6009229964835304 l -20.804127285678554 -23.671277890130654" fill="#ffaa0f" stroke="none" /><path d="M 113.86319453409587 115.77377054828091 l 20.819167788540085 23.688391221440043 a52.53692480359147,52.53692480359147 0 0,0 -0.682531007455979,0.5895540282012495 l -20.40945730132125 -24.04228938210601" fill="#ffab0f" stroke="none" /><path d="M 113.59037401385872 116.0094264158162 l 20.45470770488404 24.09559424372246 a52.60684624017957,52.60684624017957 0 0,0 -0.6934726303847866,0.5785195324757673 l -20.038060740337357 -24.443175960110096" fill="#ffac0f" stroke="none" /><path d="M 113.31354834802062 116.24036423190432 l 19.966337920954082 24.355685782429802 a52.49371492704826,52.49371492704826 0 0,0 -0.7017890489028467,0.5653115807559354 l -19.545298101695984 -24.694845656979144" fill="#ffaa0f" stroke="none" /><path d="M 113.03279911837588 116.46651593811092 l 19.528720654257725 24.673900593683385 a52.46700336700337,52.46700336700337 0 0,0 -0.7110279710970966,0.5528996509393405 l -19.102282738525396 -25.005501296243516" fill="#ffa90f" stroke="none" /><path d="M 112.7482090630111 116.68781488649013 l 19.134713648225535 25.047954398087185 a52.520426487093154,52.520426487093154 0 0,0 -0.7211479999373872,0.5411629034183816 l -18.70191265937738 -25.37273632876958" fill="#ffaa0f" stroke="none" /><path d="M 112.16784306229584 117.11559508785304 l 18.25130938045976 25.672752317709673 a52.49921436588103,52.49921436588103 0 0,0 -0.739001213146456,0.5158802405027506 l -17.807913076139545 -25.982277374017546" fill="#ffaa0f" stroke="none" /><path d="M 111.5731344415666 117.5232005979908 l 17.35883573384698 26.283489770865877 a52.49842873176207,52.49842873176207 0 0,0 -0.7562632845375924,0.490200724123481 l -16.90508681705238 -26.577604336693256" fill="#ffaa0f" stroke="none" /><path d="M 110.96478420261333 117.91015095944535 l 16.44102322636521 26.855175849404027 a52.48821548821549,52.48821548821549 0 0,0 -0.7724946701981916,0.4638608538793475 l -15.977595799609583 -27.1334507038193" fill="#ffaa0f" stroke="none" /><line stroke="#e1ed5e" stroke-width="0.3" x1="143.1302829299769" x2="145.66735839644613" y1="173.24464959558577" y2="177.55315839532614" /><path d="M 143.63769802327073 174.10635135553383 a86.0,86.0 0 0,1 -40.68552437913181,11.842963189579606" fill="none" id="id30" stroke="none" /><text fill="#e1ed5e" style="font-size:6.75px; font-family:Arial;" text-anchor="middle"><textPath startOffset="21.407464694133747" xlink:href="#id30">June</textPath></text><path d="M 110.65571695917076 118.09573695890943 l 15.991548290951554 27.157145084423927 a52.515712682379345,52.515712682379345 0 0,0 -0.7807524311960964,0.4507676263215228 l -15.52300339189506 -27.42765960802162" fill="#ffaa0f" stroke="none" /><path d="M 110.34350942703117 118.27599006163325 l 15.519520728788317 27.421506076014342 a52.50864197530864,52.50864197530864 0 0,0 -0.7882692645117573,0.43723967318033696 l -15.046507276120465 -27.683878664627823" fill="#ffaa0f" stroke="none" /><path d="M 110.02825361518725 118.45085714620011 l 15.050258960974631 27.690781342198417 a52.516498316498314,52.516498316498314 0 0,0 -0.7957779580969708,0.42370694031489664 l -14.572692187091107 -27.94505875023588" fill="#ffaa0f" stroke="none" /><path d="M 109.71004243097381 118.62028667847754 l 29.080360146904095 55.76542497090022 a83.89236812570147,83.89236812570147 0 0,0 -1.2826455100545657,0.6549279366449505 l -28.118787415135944 -56.25641085921801" fill="#4dd4ff" stroke="none" /><path d="M 109.3889696526874 118.78422872680471 l 28.123353692931865 56.265546473638075 a83.90258136924804,83.90258136924804 0 0,0 -1.2938567160422012,0.6328901558031022 l -27.153336727627593 -56.7400303795384" fill="#4dd3ff" stroke="none" /><path d="M 108.73861861582097 119.09545874513695 l 26.172375253527086 57.19136329066324 a83.89551066217732,83.89551066217732 0 0,0 -1.3147089580716858,0.5880525945226268 l -25.186752892599774 -57.63221963609572" fill="#4dd3ff" stroke="none" /><path d="M 108.4095320186766 119.2426549942271 l 25.172595431288876 57.59982459401791 a83.8601571268238,83.8601571268238 0 0,0 -1.3240517473310078,0.5651589579519607 l -24.180108608787435 -58.023458201629275" fill="#4dd4ff" stroke="none" /><path d="M 107.74402155503746 119.51999308798841 l 11.59401416427401 29.22448946457942 a52.44029180695847,52.44029180695847 0 0,0 -0.8396133651634645,0.3247804865946101 l -11.090628536617016 -29.41920983931207" fill="#ffa90f" stroke="none" /><path d="M 107.407793817531 119.65005319985036 l 11.15381510565544 29.586819720702486 a52.619416386083046,52.619416386083046 0 0,0 -0.8479514923180521,0.31137953333119467 l -10.64427446168326 -29.773930103042403" fill="#ffac10" stroke="none" /><path d="M 107.06938296918513 119.77432235084164 l 21.170329163275774 59.217178496738526 a83.88765432098765,83.88765432098765 0 0,0 -1.3601553377608944,0.473132631710573 l -20.150668053469857 -59.57186956101769" fill="#4dd4ff" stroke="none" /><path d="M 106.72888874123015 119.89276391827305 l 20.180624572744325 59.66043068732801 a83.98114478114479,83.98114478114479 0 0,0 -1.3696015501836067,0.45021523328880486 l -19.153500284912983 -59.99806684201884" fill="#4dd2ff" stroke="none" /><path d="M 106.38641147887787 120.00534299687104 l 19.116706144705454 59.88280972187224 a83.8601571268238,83.8601571268238 0 0,0 -1.3751443159751993,0.42602322425526257 l -18.08592119585863 -60.20214953393415" fill="#4dd4ff" stroke="none" /><path d="M 106.0420521117495 120.11202640906438 l 18.104682524899978 60.26459989652122 a83.9253647586981,83.9253647586981 0 0,0 -1.3833297484973759,0.4026671289238117 l -17.067492764020997 -60.56651071974755" fill="#4dd3ff" stroke="none" /><path d="M 105.69591212413111 120.21278271476187 l 17.059608411286508 60.538531933348516 a83.8962962962963,83.8962962962963 0 0,0 -1.389556773549786,0.37872987771550165 l -16.01787023680203 -60.82246230520816" fill="#4dd3ff" stroke="none" /><path d="M 105.3480935250658 120.30758222061773 l 16.021871803225572 60.83765690469984 a83.91200897867566,83.91200897867566 0 0,0 -1.3961148462843909,0.35488693446084857 l -14.975151663715785 -61.10372907099596" fill="#4dd3ff" stroke="none" /><path d="M 104.9986988182912 120.39639698878246 l 14.973094586012783 61.09533549198822 a83.90336700336701,83.90336700336701 0 0,0 -1.4018568416401844,0.3308343975688026 l -13.92210559063272 -61.34336603320325" fill="#4dd3ff" stroke="none" /><path d="M 104.64783097203109 120.47920084513623 l 13.943492916093243 61.4376025354087 a84.0,84.0 0 0,0 -1.4089503335234566,0.30707416746512495 l -12.88678016595065 -61.66790816100754" fill="#4dd2ff" stroke="none" /><path d="M 104.29559338865022 120.5559693870025 l 12.86171048511902 61.54794066290157 a83.87744107744106,83.87744107744106 0 0,0 -1.411950962168826,0.28242973642672115 l -11.803263037419235 -61.75965979599115" fill="#4dd4ff" stroke="none" /><path d="M 103.94208987418118 120.62667999033965 l 11.801640778211757 61.75117145031613 a83.86879910213244,83.86879910213244 0 0,0 -1.4164452371576506,0.2581235064835443 l -10.73986080750305 -61.94466313073104" fill="#4dd4ff" stroke="none" /><path d="M 103.58742460773223 120.69131181640829 l 10.740531855877109 61.948533559428455 a83.87272727272727,83.87272727272727 0 0,0 -1.4207340938668205,0.23378125449304854 l -9.675520258957217 -62.12378081241717" fill="#4dd4ff" stroke="none" /><path d="M 103.2317021107853 120.74984581791261 l 4.877174079651298 31.314956239977366 a52.69248035914703,52.69248035914703 0 0,0 -0.894956422255613,0.13152777455458123 l -4.338892551788 -31.394065087830832" fill="#ffae10" stroke="none" /><path d="M 102.875027216393 120.80226474461374 l 8.61421828408897 62.328192335629225 a83.92065095398428,83.92065095398428 0 0,0 -1.4287378055910684,0.18497871326113124 l -7.543002656607126 -62.466882645090756" fill="#4dd3ff" stroke="none" /><path d="M 102.51750503828377 120.84855314841334 l 7.5417782807935225 62.456743056952746 a83.91043771043772,83.91043771043772 0 0,0 -1.4315284434577267,0.16040574797203408 l -6.468513935734997 -62.57700456543175" fill="#4dd3ff" stroke="none" /><path d="M 102.15924093988457 120.88869738790638 l 6.467383020166032 62.56606398318592 a83.89943883277216,83.89943883277216 0 0,0 -1.4338831061349588,0.13579022095362597 l -5.392400350646058 -62.66786595964473" fill="#4dd3ff" stroke="none" /><path d="M 101.44090949804482 120.95050786540614 l 4.316421482863546 62.75982103653817 a83.90808080808081,83.90808080808081 0 0,0 -1.4378474657387328,0.08649733304861383 l -3.238429664992348 -62.82467034741148" fill="#4dd3ff" stroke="none" /><line stroke="#e1ed5e" stroke-width="0.3" x1="101.45913802915013" x2="101.54496967792366" y1="184.9874750549273" y2="189.98673829345242" /><path d="M 101.47630435890484 185.9873277026323 a86.0,86.0 0 0,1 -42.54439059252881,-10.42667462771756" fill="none" id="id31" stroke="none" /><text fill="#e1ed5e" style="font-size:6.75px; font-family:Arial;" text-anchor="middle"><textPath startOffset="22.145653131862474" xlink:href="#id31">July</textPath></text><path d="M 99.63950707515114 120.99690560180557 l -1.0797929677524558 62.89252701116957 a83.90179573512907,83.90179573512907 0 0,0 -1.4398614337379314,-0.03708572299295489 l 2.159267715561131 -62.86472357082657" fill="#4dd3ff" stroke="none" /><path d="M 99.27912038922189 120.98762331915562 l -1.460017189999787 42.50680746835493 a63.53187429854096,63.53187429854096 0 0,0 -1.0896449763371483,-0.04679404373769245 l 2.189487926937774 -42.47548085619141" fill="#85ff25" stroke="none" /><path d="M 98.91894614982273 120.97215588758144 l -3.2415033684196692 62.88429937275588 a83.96778900112233,83.96778900112233 0 0,0 -1.4388706243335676,-0.08655888372894766 l 4.320518344885683 -62.81938851120224" fill="#4dd2ff" stroke="none" /><path d="M 98.55909050195518 120.95050786540614 l -2.1551111418755666 31.334843020990345 a52.40886644219978,52.40886644219978 0 0,0 -0.8970176927623934,-0.06943484255619028 l 2.6926978294131962 -31.2932304114391" fill="#ffa80f" stroke="none" /><path d="M 98.19965949673042 120.92268563240118 l -2.7009148717401272 31.388724898799847 a52.5047138047138,52.5047138047138 0 0,0 -0.8973316528026952,-0.08497824047261758 l 3.2393460879278377 -31.337734902822046" fill="#ffaa0f" stroke="none" /><path d="M 97.84075906011543 120.88869738790638 l -6.471018105923426 62.601230140404624 a83.9347923681257,83.9347923681257 0 0,0 -1.431943938670984,-0.16045230507731967 l 7.5446979461952095 -62.48092207482033" fill="#4dd3ff" stroke="none" /><path d="M 97.48249496171623 120.84855314841334 l -7.54639323578328 62.494961504549906 a83.94893378226712,83.94893378226712 0 0,0 -1.429219316941983,-0.18504105454570055 l 8.618090374616058 -62.35620885380381" fill="#4dd3ff" stroke="none" /><path d="M 97.12497278360702 120.80226474461374 l -8.617122351984275 62.34920472426017 a83.94186307519641,83.94186307519641 0 0,0 -1.4257121498780883,-0.20953058893780807 l 9.686159607470048 -62.192093062023474" fill="#4dd3ff" stroke="none" /><path d="M 96.76829788921471 120.74984581791261 l -9.686764115908279 62.19597443984201 a83.94579124579124,83.94579124579124 0 0,0 -1.4219717366732925,-0.23398490814587874 l 10.753013355634634 -62.02052353320046" fill="#4dd3ff" stroke="none" /><path d="M 96.41257539226777 120.69131181640829 l -10.750060742788765 62.003493646931815 a83.92850729517396,83.92850729517396 0 0,0 -1.4174536382145198,-0.2583072707477032 l 11.812849114554341 -61.80981820225275" fill="#4dd3ff" stroke="none" /><line stroke="#e1ed5e" stroke-width="0.3" x1="58.13341422392154" x2="55.67067388415222" y1="173.97424548756322" y2="178.32567169271397" /><path d="M 57.64086615596768 174.84453072859336 a86.0,86.0 0 0,1 -31.369924170532247,-30.572349798747897" fill="none" id="id32" stroke="none" /><text fill="#e1ed5e" style="font-size:6.75px; font-family:Arial;" text-anchor="middle"><textPath startOffset="22.145653131862474" xlink:href="#id32">August</textPath></text><line stroke="#e1ed5e" stroke-width="0.3" x1="26.387840678322732" x2="22.057713659400548" y1="142.50000000000003" y2="145.00000000000006" /><path d="M 25.521815274538298 143.00000000000003 a86.0,86.0 0 0,1 -11.493303480769221,-40.785679425670985" fill="none" id="id33" stroke="none" /><text fill="#e1ed5e" style="font-size:6.75px; font-family:Arial;" text-anchor="middle"><textPath startOffset="21.40746469413373" xlink:href="#id33">September</textPath></text><line stroke="#e1ed5e" stroke-width="0.3" x1="15.003131293944662" x2="10.003315487706104" y1="100.72959589197737" y2="100.7725132973878" /><path d="M 14.003168132696942 100.73817937305945 a86.0,86.0 0 0,1 10.791469493833604,-42.45332614584628" fill="none" id="id34" stroke="none" /><text fill="#e1ed5e" style="font-size:6.75px; font-family:Arial;" text-anchor="middle"><textPath startOffset="22.145653131862435" xlink:href="#id34">October</textPath></text><line stroke="#e1ed5e" stroke-width="0.3" x1="26.387840678322718" x2="22.05771365940052" y1="57.49999999999999" y2="54.99999999999999" /><path d="M 25.521815274538284 56.99999999999999 a86.0,86.0 0 0,1 29.574782752854787,-30.34633250058573" fill="none" id="id35" stroke="none" /><text fill="#e1ed5e" style="font-size:6.75px; font-family:Arial;" text-anchor="middle"><textPath startOffset="21.40746469413373" xlink:href="#id35">November</textPath></text><line stroke="#e1ed5e" stroke-width="0.3" x1="56.869717070023135" x2="54.33264160355391" y1="26.7553504044142" y2="22.446841604673864" /><path d="M 56.362301976729285 25.89364864446614 a86.0,86.0 0 0,1 42.16139366436587,-11.88097634709845" fill="none" id="id36" stroke="none" /><text fill="#e1ed5e" style="font-size:6.75px; font-family:Arial;" text-anchor="middle"><textPath startOffset="22.145653131862474" xlink:href="#id36">December</textPath></text></svg>