<?xml version="1.0" encoding="utf-8" ?>
<svg baseProfile="full" height="200mm" version="1.1" viewBox="0,0,200,200" width="200mm" xmlns="http://www.w3.org/2000/svg" xmlns:ev="http://www.w3.org/2001/xml-events" xmlns:xlink="http://www.w3.org/1999/xlink"><defs /><rect fill="#1a1a1a" height="200" width="200" x="0" y="0" /><text alignment-baseline="middle" fill="#e1ed5e" style="dominant-baseline: central; font-size:9.0px; font-family:Arial;" text-anchor="middle" x="100.0" y="100.0">2025</text><line stroke="#e1ed5e" stroke-width="0.3" x1="100.0" x2="100.0" y1="15.0" y2="10.0" /><path d="M 100.0 14.0 a86.0,86.0 0 0,1 42.46469731375804,11.215312516191453" fill="none" id="id37" stroke="none" /><text fill="#e1ed5e" style="font-size:6.75px; font-family:Arial;" text-anchor="middle"><textPath startOffset="22.20632615414155" xlink:href="#id37">January</textPath></text><line stroke="#e1ed5e" stroke-width="0.3" x1="143.23703022742887" x2="145.7803849466894" y1="26.81831364943548" y2="22.513508569990506" /><path d="M 143.74570117128098 25.957352633546492 a86.0,86.0 0 0,1 28.547481713284135,27.462654790039103" fill="none" id="id38" stroke="none" /><text fill="#e1ed5e" style="font-size:6.75px; font-family:Arial;" text-anchor="middle"><textPath startOffset="19.985693538727396" xlink:href="#id38">February</textPath></text><line stroke="#e1ed5e" stroke-width="0.3" x1="172.23445277983987" x2="176.4835382374775" y1="55.19839476539836" y2="52.563006222186495" /><path d="M 173.08426987136738 54.67131705675599 a86.0,86.0 0 0,1 12.851231095245387,41.99856678651699" fill="none" id="id39" stroke="none" /><text fill="#e1ed5e" style="font-size:6.75px; font-family:Arial;" text-anchor="middle"><textPath startOffset="22.20632615414155" xlink:href="#id39">March</textPath></text><line stroke="#e1ed5e" stroke-width="0.3" x1="184.98032266829074" x2="189.97916517819016" y1="98.17113171792111" y2="98.06355123074" /><path d="M 185.9800911702706 98.14961562048488 a86.0,86.0 0 0,1 -9.607161424134198,41.387399972396054" fill="none" id="id40" stroke="none" /><text fill="#e1ed5e" style="font-size:6.75px; font-family:Arial;" text-anchor="middle"><textPath startOffset="21.466115282336823" xlink:href="#id40">April</textPath></text><line stroke="#e1ed5e" stroke-width="0.3" x1="174.80103733775053" x2="179.2010983576182" y1="140.37084112569926" y2="142.7455964860345" /><path d="M 175.68104954172406 140.8457921977663 a86.0,86.0 0 0,1 -30.038265399797805,32.042727171017184" fill="none" id="id41" stroke="none" /><text fill="#e1ed5e" style="font-size:6.75px; font-family:Arial;" text-anchor="middle"><textPath startOffset="22.206326154141568" xlink:href="#id41">May</textPath></text><line stroke="#e1ed5e" stroke-width="0.3" x1="143.8653032363475" x2="146.44561519142675" y1="172.8068346515853" y2="177.08958963109032" /><path d="M 144.38136562736335 173.6633856474863 a86.0,86.0 0 0,1 -40.68145358897372,12.25698825130547" fill="none" id="id42" stroke="none" /><text fill="#e1ed5e" style="font-size:6.75px; font-family:Arial;" text-anchor="middle"><textPath startOffset="21.466115282336833" xlink:href="#id42">June</textPath></text><path d="M 109.89434966115114 118.52300852407294 l 29.30704565207123 54.86511746801886 a83.20196170244228,83.20196170244228 0 0,0 -1.2690640600444933,0.6639143365436987 l -28.358290689500244 -55.36146122350728" fill="#4be3ff" stroke="none" /><path d="M 109.2508944713604 118.85261126421891 l 27.388137482649462 55.81491722880317 a83.1724622322991,83.1724622322991 0 0,0 -1.2907072291778743,0.6196179061545262 l -26.423317585471356 -56.27808941145726" fill="#4be3ff" stroke="none" /><path d="M 108.92500713936063 119.00905698771935 l 26.423317585471356 56.27808941145726 a83.1724622322991,83.1724622322991 0 0,0 -1.301181700673135,0.5973086998467418 l -25.4506678890308 -56.724585181638076" fill="#4be3ff" stroke="none" /><path d="M 108.59647513512805 119.15986991738527 l 25.462743672915813 56.75149975357022 a83.20196170244228,83.20196170244228 0 0,0 -1.311735683218857,0.5750263751648402 l -24.482087315039205 -57.181390682029516" fill="#4be3ff" stroke="none" /><path d="M 107.93186726928326 119.44442032107085 l 23.463095554922003 57.51814503630465 a83.11967370677971,83.11967370677971 0 0,0 -1.329435550684969,0.5290098420404291 l -22.469538928195167 -57.91350172275115" fill="#4ae5ff" stroke="none" /><path d="M 107.59598834532513 119.57807347666477 l 22.49537243958474 57.980085603762056 a83.19109347660005,83.19109347660005 0 0,0 -1.339494574854958,0.5064822322155315 l -21.49400764396951 -58.35871608608422" fill="#4be3ff" stroke="none" /><path d="M 107.2578585660854 119.70592522655815 l 21.476836477487414 58.31209438359884 a83.14141015846417,83.14141015846417 0 0,0 -1.3472093132659817,0.48306132832568816 l -20.469907603591697 -58.67314325296449" fill="#4be4ff" stroke="none" /><path d="M 106.57524785965236 119.94407469862006 l 19.45691305429625 59.016806003714144 a83.14141015846417,83.14141015846417 0 0,0 -1.36303870745707,0.43640195078405997 l -18.43815300174824 -59.34298080115791" fill="#4be4ff" stroke="none" /><path d="M 105.88484417918355 120.15858648285463 l 17.654532537550654 60.47575944856389 a84.0,84.0 0 0,0 -1.391475327581577,0.39324482664592386 l -16.61092604186447 -60.77069306854833" fill="#4dd2ff" stroke="none" /><path d="M 105.53697534728816 120.25689768951611 l 16.407879505236213 60.027851957524845 a83.2299085688937,83.2299085688937 0 0,0 -1.385221356607314,0.36584955036098343 l -15.372167705817402 -60.30139285718941" fill="#4be2ff" stroke="none" /><path d="M 105.18746579009965 120.34920634021253 l 15.353374855898863 60.22767293378426 a83.15383098799813,83.15383098799813 0 0,0 -1.3900418680645203,0.34163847161963345 l -14.314379703091133 -60.48303266371793" fill="#4be4ff" stroke="none" /><path d="M 104.48393922423573 120.51570834832081 l 13.293354285873411 60.82209545254575 a83.25785543534515,83.25785543534515 0 0,0 -1.4027304836239802,0.29395581133643234 l -12.244432340820053 -61.04190724460872" fill="#4be2ff" stroke="none" /><path d="M 103.7750983002368 120.6578951692458 l 11.177647686710486 61.165738157425835 a83.17867264706608,83.17867264706608 0 0,0 -1.4106747530877262,0.24526388795439208 l -10.123123962150709 -61.34908062390124" fill="#4be3ff" stroke="none" /><path d="M 103.41894727170886 120.7198165907248 l 10.122618412612049 61.34601684640303 a83.17556743968258,83.17556743968258 0 0,0 -1.4146347482602748,0.22093685424525955 l -9.065147800743256 -61.5111720079954" fill="#4be3ff" stroke="none" /><path d="M 102.70371172650421 120.8252237178851 l 7.997594878801305 61.60113185268979 a83.11812110308796,83.11812110308796 0 0,0 -1.4204197291139344,0.17199304789890185 l -6.936047726635991 -61.72967042931405" fill="#4ae5ff" stroke="none" /><path d="M 102.34483914955558 120.86867818915974 l 6.9407285056761845 61.77132858376907 a83.1600414027651,83.1600414027651 0 0,0 -1.4238876263506106,0.1475917743964921 l -5.876408282719971 -61.88164972662132" fill="#4be4ff" stroke="none" /><path d="M 100.90346689309514 120.98055641714683 l 2.6778707946016898 62.18625133179508 a83.24388200211942,83.24388200211942 0 0,0 -1.4321104959505926,0.04932478112127789 l -1.607039946976445 -62.223132911342454" fill="#4be2ff" stroke="none" /><line stroke="#e1ed5e" stroke-width="0.3" x1="102.19456741930631" x2="102.32365962044197" y1="184.97166512339345" y2="189.96999836594603" /><path d="M 102.22038585953345 185.97133177190398 a86.0,86.0 0 0,1 -42.740103519485714,-10.115201625700543" fill="none" id="id43" stroke="none" /><text fill="#e1ed5e" style="font-size:6.75px; font-family:Arial;" text-anchor="middle"><textPath startOffset="22.20632615414155" xlink:href="#id43">July</textPath></text><path d="M 100.54218724476979 120.99299961872073 l 1.6043141121948434 62.11759105457091 a83.13830495108066,83.13830495108066 0 0,0 -1.4309302249198348,0.024634761501440585 l -0.5348241973823407 -62.13600329335151" fill="#4be4ff" stroke="none" /><path d="M 100.18074693466247 120.99922214144158 l 0.5352117317815234 62.18102713262759 a83.18333045814131,83.18333045814131 0 0,0 -1.431917332887915,0.0 l 0.5352117317814806 -62.18102713262759" fill="#4be3ff" stroke="none" /><path d="M 93.42475214034765 119.94407469862007 l -11.273381314439561 34.194476594696454 a57.00487961160263,57.00487961160263 0 0,0 -0.9292616981581534,-0.3152560214439816 l 11.86031274553494 -33.99535758635435" fill="#ff0000" stroke="none" /><path d="M 93.08242187328487 119.8279376855182 l -20.48218218340592 58.70832602925051 a83.17867264706608,83.17867264706608 0 0,0 -1.3478131083133231,-0.4832778277476636 l 21.48971485234897 -58.34706066046289" fill="#4be3ff" stroke="none" /><path d="M 92.06813273071674 119.44442032107085 l -23.483034201482035 57.56702324003459 a83.1724622322991,83.1724622322991 0 0,0 -1.320970949444817,-0.5521659640018516 l 24.470476610424313 -57.15427223301276" fill="#4be3ff" stroke="none" /><path d="M 91.7346041902142 119.30500536409082 l -24.584139297706773 57.419747576018956 a83.46124651896395,83.46124651896395 0 0,0 -1.315823485224874,-0.5768183474348418 l 25.56888345758939 -56.988064675289664" fill="#4bddff" stroke="none" /><path d="M 91.07499286063937 119.00905698771935 l -26.42529715676185 56.28230563032235 a83.17712004337432,83.17712004337432 0 0,0 -1.2907795111599452,-0.6196526058984975 l 27.390189335922038 -55.819098747924286" fill="#4be3ff" stroke="none" /><path d="M 90.7491055286396 118.85261126421891 l -27.40250045555764 55.84418786265107 a83.20506690982577,83.20506690982577 0 0,0 -1.2803520110906976,-0.6419950780326216 l 28.359706374331097 -55.36422494370914" fill="#4be3ff" stroke="none" /><line stroke="#e1ed5e" stroke-width="0.3" x1="58.666819895761336" x2="56.23545636021788" y1="174.27360380694188" y2="178.64263932499728" /><path d="M 58.180547188652646 175.14741091055294 a86.0,86.0 0 0,1 -31.652253787137756,-30.449443065178592" fill="none" id="id44" stroke="none" /><text fill="#e1ed5e" style="font-size:6.75px; font-family:Arial;" text-anchor="middle"><textPath startOffset="22.20632615414155" xlink:href="#id44">August</textPath></text><path d="M 88.24862548938628 117.40417183066458 l -34.7701905942845 51.495794908189104 a83.13519974369717,83.13519974369717 0 0,0 -1.1791069947219552,-0.8110005426413547 l 35.65145447362934 -50.88965357618265" fill="#4be4ff" stroke="none" /><path d="M 86.51685102203217 116.09983520530335 l -39.913138127179494 47.65911490143238 a83.16469921384035,83.16469921384035 0 0,0 -1.089594280181543,-0.9285758838138116 l 40.727597883938095 -46.96501462739562" fill="#4be4ff" stroke="none" /><path d="M 86.24171649860922 115.8653595955263 l -40.73370107301134 46.97205251764673 a83.17401483599083,83.17401483599083 0 0,0 -1.0735691790836306,-0.9472999787932059 l 41.53621260500156 -46.263929397081235" fill="#4be3ff" stroke="none" /><path d="M 85.97065885151581 115.62618273729859 l -33.26112447508016 37.0469577719117 a70.7873425832368,70.7873425832368 0 0,0 -0.8996749346433338,-0.821831721709868 l 33.893898959190345 -36.46893328361526" fill="#70ff27" stroke="none" /><path d="M 85.70375840098266 115.38237550388516 l -42.28202326580259 45.494331809787674 a83.10880548093749,83.10880548093749 0 0,0 -1.0395097641155402,-0.9829213648992771 l 43.058868864308955 -44.75977580814247" fill="#4ae5ff" stroke="none" /><path d="M 85.44109423537348 115.13401014063109 l -43.148209316668456 44.85264537772663 a83.23767158735244,83.23767158735244 0 0,0 -1.0240217342247857,-1.0022207949441433 l 43.91388100326903 -44.10327447985992" fill="#4be2ff" stroke="none" /><path d="M 84.9287848128048 114.62390073753433 l -44.57182729400855 43.24893314454819 a83.10570027355399,83.10570027355399 0 0,0 -0.9873489410150333,-1.0352314172852142 l 45.30968278640254 -42.47529461068047" fill="#4ae5ff" stroke="none" /><path d="M 84.67929136418377 114.36230785411682 l -45.41502516532145 42.574047201835526 a83.25009241688642,83.25009241688642 0 0,0 -0.9710671034382787,-1.0539015527000661 l 46.14113867675546 -41.78599439433411" fill="#4be2ff" stroke="none" /><path d="M 84.43433777217949 114.09645910891817 l -46.04677110625877 41.70053393789835 a83.12277891416319,83.12277891416319 0 0,0 -0.9513249668884205,-1.0688236852258812 l 46.75775492279553 -40.9017360829316" fill="#4ae4ff" stroke="none" /><path d="M 84.19399662182784 113.82643327865904 l -46.778789602107 40.92013634409058 a83.15072578061464,83.15072578061464 0 0,0 -0.933099588801333,-1.0854056265622005 l 47.47623170047911 -40.108853618366844" fill="#4be4ff" stroke="none" /><path d="M 83.95833913139862 113.55231037782056 l -47.530788449372984 40.15494423206769 a83.22214555043497,83.22214555043497 0 0,0 -0.9150631573827508,-1.1022525211282657 l 48.214947606649275 -39.33083045382566" fill="#4be2ff" stroke="none" /><line stroke="#e1ed5e" stroke-width="0.3" x1="26.63291911575756" x2="22.317208475507996" y1="142.92168965132927" y2="145.44649492493687" /><path d="M 25.769776987707644 143.4266507060508 a86.0,86.0 0 0,1 -11.730757126820373,-40.83630448921669" fill="none" id="id45" stroke="none" /><text fill="#e1ed5e" style="font-size:6.75px; font-family:Arial;" text-anchor="middle"><textPath startOffset="21.46611528233685" xlink:href="#id45">September</textPath></text><line stroke="#e1ed5e" stroke-width="0.3" x1="15.007084014347285" x2="10.007500721073583" y1="101.09737516637583" y2="101.16192664675087" /><path d="M 14.007167355692545 101.11028546245083 a86.0,86.0 0 0,1 10.666146001902534,-42.60595125391555" fill="none" id="id46" stroke="none" /><text fill="#e1ed5e" style="font-size:6.75px; font-family:Arial;" text-anchor="middle"><textPath startOffset="22.20632615414155" xlink:href="#id46">October</textPath></text><line stroke="#e1ed5e" stroke-width="0.3" x1="26.266209847984243" x2="21.928928074336255" y1="57.711370442889674" y2="55.22380399835377" /><path d="M 25.398753493254645 57.213857153982495 a86.0,86.0 0 0,1 29.58750427330803,-30.492523968695096" fill="none" id="id47" stroke="none" /><text fill="#e1ed5e" style="font-size:6.75px; font-family:Arial;" text-anchor="middle"><textPath startOffset="21.46611528233685" xlink:href="#id47">November</textPath></text><line stroke="#e1ed5e" stroke-width="0.3" x1="56.762969772571076" x2="54.21961505331055" y1="26.818313649435495" y2="22.513508569990535" /><path d="M 56.25429882871897 25.957352633546506 a86.0,86.0 0 0,1 42.265352541879196,-11.944610805530505" fill="none" id="id48" stroke="none" /><text fill="#e1ed5e" style="font-size:6.75px; font-family:Arial;" text-anchor="middle"><textPath startOffset="22.20632615414155" xlink:href="#id48">December</textPath></text></svg>