<?xml version="1.0" encoding="utf-8" ?>
<svg baseProfile="full" height="200mm" version="1.1" viewBox="0,0,200,200" width="200mm" xmlns="http://www.w3.org/2000/svg" xmlns:ev="http://www.w3.org/2001/xml-events" xmlns:xlink="http://www.w3.org/1999/xlink"><defs /><rect fill="#1a1a1a" height="200" width="200" x="0" y="0" /><text alignment-baseline="middle" fill="#e1ed5e" style="dominant-baseline: central; font-size:9.0px; font-family:Arial;" text-anchor="middle" x="100.0" y="100.0">2024</text><line stroke="#e1ed5e" stroke-width="0.3" x1="100.0" x2="100.0" y1="15.0" y2="10.0" /><path d="M 100.0 14.0 a86.0,86.0 0 0,1 42.35913384403234,11.155469271406648" fill="none" id="id25" stroke="none" /><text fill="#e1ed5e" style="font-size:6.75px; font-family:Arial;" text-anchor="middle"><textPath startOffset="22.145653131862478" xlink:href="#id25">January</textPath></text><line stroke="#e1ed5e" stroke-width="0.3" x1="143.13028292997686" x2="145.6673583964461" y1="26.7553504044142" y2="22.446841604673864" /><path d="M 143.63769802327073 25.89364864446614 a86.0,86.0 0 0,1 29.32050498858742,28.57503671076993" fill="none" id="id26" stroke="none" /><text fill="#e1ed5e" style="font-size:6.75px; font-family:Arial;" text-anchor="middle"><textPath startOffset="20.669276256404974" xlink:href="#id26">February</textPath></text><line stroke="#e1ed5e" stroke-width="0.3" x1="172.87174338648825" x2="177.1583165268699" y1="56.24261187166439" y2="53.66864786411523" /><path d="M 173.72905801456457 55.72781907015455 a86.0,86.0 0 0,1 12.242430191666344,42.057860355516425" fill="none" id="id27" stroke="none" /><text fill="#e1ed5e" style="font-size:6.75px; font-family:Arial;" text-anchor="middle"><textPath startOffset="22.145653131862474" xlink:href="#id27">March</textPath></text><line stroke="#e1ed5e" stroke-width="0.3" x1="184.99686870605535" x2="189.99668451229388" y1="99.2704041080226" y2="99.22748670261217" /><path d="M 185.99683186730306 99.26182062694052 a86.0,86.0 0 0,1 -10.086455211305974,41.156179273409016" fill="none" id="id28" stroke="none" /><text fill="#e1ed5e" style="font-size:6.75px; font-family:Arial;" text-anchor="middle"><textPath startOffset="21.40746469413373" xlink:href="#id28">April</textPath></text><path d="M 119.31412917781788 108.2440532568976 l 42.70266056046945 18.227226536107548 a67.43004421860113,67.43004421860113 0 0,0 -0.4635530342506568,1.060700059147427 l -42.38347364420182 -18.95758866503082" fill="#ff0000" stroke="none" /><path d="M 119.16976305983485 108.57439118712176 l 56.33052647895476 25.19592799866562 a82.70869469621088,82.70869469621088 0 0,0 -0.5908375759996124,1.291086732764736 l -55.88970443810009 -26.159203713645045" fill="#47ffff" stroke="none" /><line stroke="#e1ed5e" stroke-width="0.3" x1="174.33088141563837" x2="178.70328620479359" y1="141.23008692659167" y2="143.65538615756765" /><path d="M 175.20536237346943 141.71514677278685 a86.0,86.0 0 0,1 -30.301960400862466,31.631185727798858" fill="none" id="id29" stroke="none" /><text fill="#e1ed5e" style="font-size:6.75px; font-family:Arial;" text-anchor="middle"><textPath startOffset="22.145653131862474" xlink:href="#id29">May</textPath></text><path d="M 116.79662413953412 112.60449989151573 l 49.45674942997944 37.11326678779795 a82.8333618351941,82.8333618351941 0 0,0 -0.8632341641298883,1.13000123103497 l -48.81236328849525 -37.95678893207379" fill="#48fbff" stroke="none" /><path d="M 116.57777611688842 112.89097897827486 l 48.756473588152474 37.91332876304142 a82.76256321305547,82.76256321305547 0 0,0 -0.8817506512814421,1.1140631433729107 l -48.09845650622947 -38.74471185032902" fill="#47fdff" stroke="none" /><path d="M 116.35404254752997 113.17365903436017 l 48.247082402882086 38.86443435199716 a82.9534116727335,82.9534116727335 0 0,0 -0.9028221948957524,1.1012962809373192 l -47.572813388747704 -39.686932914632976" fill="#48f6ff" stroke="none" /><path d="M 115.89218393027572 113.72728997021213 l 46.81580442871294 40.438376839912 a82.86260474433831,82.86260474433831 0 0,0 -0.9390658638440637,1.0684845711115478 l -46.114727500910284 -41.23607368883484" fill="#48faff" stroke="none" /><path d="M 115.6541949942343 113.99807769240083 l 46.05621500893272 41.18375145770257 a82.78411061979332,82.78411061979332 0 0,0 -0.9563626461962863,1.0512100782464753 l -45.34245466189455 -41.96829911150672" fill="#47fcff" stroke="none" /><path d="M 115.41159269507618 114.26474011684316 l 45.350361325139275 41.97561740096641 a82.79488432316224,82.79488432316224 0 0,0 -0.9743939360452729,1.034772593501019 l -44.623111555357745 -42.747931454411926" fill="#47fcff" stroke="none" /><path d="M 115.16444852881244 114.52719865689866 l 45.49334558643733 43.58159597069598 a84.0,84.0 0 0,0 -1.0064527953967715,1.0327092317290507 l -44.738505989889745 -44.356127894492765" fill="#4dd2ff" stroke="none" /><path d="M 114.13192950727249 115.5334660781643 l 41.54648486491741 45.66686473945749 a82.73793760535509,82.73793760535509 0 0,0 -1.058789402050673,0.9467760121331545 l -40.75643043604336 -46.37333628147403" fill="#47feff" stroke="none" /><path d="M 113.86319453409587 115.77377054828091 l 40.785895608995894 46.406862239446816 a82.78257151931203,82.78257151931203 0 0,0 -1.0754659156413011,0.9289618432469062 l -39.98325021359174 -47.10016821515844" fill="#47fcff" stroke="none" /><path d="M 113.59037401385872 116.0094264158162 l 40.07189824480617 47.20459537302675 a82.91955146214545,82.91955146214545 0 0,0 -1.093060002119306,0.9118695297940552 l -39.25566390852497 -47.88552708673267" fill="#48f8ff" stroke="none" /><path d="M 113.31354834802062 116.24036423190432 l 39.11515495764561 47.71412901309568 a82.69792099284194,82.69792099284194 0 0,0 -1.1055894100934556,0.8905845682033101 l -38.2903147771969 -48.378561875092394" fill="#47fffe" stroke="none" /><path d="M 113.03279911837588 116.46651593811092 l 38.25783864522333 48.337529343255326 a82.64559157647864,82.64559157647864 0 0,0 -1.1200054039240082,0.8709229763834361 l -37.42242329666409 -48.98715337125955" fill="#47fffd" stroke="none" /><path d="M 112.7482090630111 116.68781488649013 l 37.48595723380171 49.07032133443948 a82.75025040920528,82.75025040920528 0 0,0 -1.1362279701133322,0.8526466513185804 l -36.63807627477761 -49.70658701302207" fill="#47feff" stroke="none" /><path d="M 112.16784306229584 117.11559508785304 l 35.75531964964865 50.29433484858522 a82.70869469621088,82.70869469621088 0 0,0 -1.1642426740386127,0.812731806121644 l -34.88668188443628 -50.90071147051199" fill="#47ffff" stroke="none" /><path d="M 111.5731344415666 117.5232005979908 l 34.00691465314512 51.49080313501904 a82.7071555957296,82.7071555957296 0 0,0 -1.1914334706125365,0.7722727811602308 l -33.11799555027557 -52.06698975788317" fill="#47ffff" stroke="none" /><path d="M 110.96478420261333 117.91015095944535 l 32.208869433518835 52.61076762914297 a82.68714728947305,82.68714728947305 0 0,0 -1.2169470800422222,0.7307417558357223 l -31.300989596919173 -53.15592338551461" fill="#47fffe" stroke="none" /><line stroke="#e1ed5e" stroke-width="0.3" x1="143.1302829299769" x2="145.66735839644613" y1="173.24464959558577" y2="177.55315839532614" /><path d="M 143.63769802327073 174.10635135553383 a86.0,86.0 0 0,1 -40.68552437913181,11.842963189579606" fill="none" id="id30" stroke="none" /><text fill="#e1ed5e" style="font-size:6.75px; font-family:Arial;" text-anchor="middle"><textPath startOffset="21.407464694133747" xlink:href="#id30">June</textPath></text><path d="M 110.65571695917076 118.09573695890943 l 31.32832329541948 53.2023419812854 a82.74101580631765,82.74101580631765 0 0,0 -1.2301127786482946,0.7102059438861942 l -30.410418048910785 -53.73229482244776" fill="#47feff" stroke="none" /><path d="M 110.34350942703117 118.27599006163325 l 30.403595320194828 53.72023971454791 a82.72716390198616,82.72716390198616 0 0,0 -1.241915200831642,0.6888694269535617 l -29.47693593120709 -54.23424205693461" fill="#47feff" stroke="none" /><line stroke="#e1ed5e" stroke-width="0.3" x1="101.45913802915013" x2="101.54496967792366" y1="184.9874750549273" y2="189.98673829345242" /><path d="M 101.47630435890484 185.9873277026323 a86.0,86.0 0 0,1 -42.54439059252881,-10.42667462771756" fill="none" id="id31" stroke="none" /><text fill="#e1ed5e" style="font-size:6.75px; font-family:Arial;" text-anchor="middle"><textPath startOffset="22.145653131862474" xlink:href="#id31">July</textPath></text><line stroke="#e1ed5e" stroke-width="0.3" x1="58.13341422392154" x2="55.67067388415222" y1="173.97424548756322" y2="178.32567169271397" /><path d="M 57.64086615596768 174.84453072859336 a86.0,86.0 0 0,1 -31.369924170532247,-30.572349798747897" fill="none" id="id32" stroke="none" /><text fill="#e1ed5e" style="font-size:6.75px; font-family:Arial;" text-anchor="middle"><textPath startOffset="22.145653131862474" xlink:href="#id32">August</textPath></text><line stroke="#e1ed5e" stroke-width="0.3" x1="26.387840678322732" x2="22.057713659400548" y1="142.50000000000003" y2="145.00000000000006" /><path d="M 25.521815274538298 143.00000000000003 a86.0,86.0 0 0,1 -11.493303480769221,-40.785679425670985" fill="none" id="id33" stroke="none" /><text fill="#e1ed5e" style="font-size:6.75px; font-family:Arial;" text-anchor="middle"><textPath startOffset="21.40746469413373" xlink:href="#id33">September</textPath></text><line stroke="#e1ed5e" stroke-width="0.3" x1="15.003131293944662" x2="10.003315487706104" y1="100.72959589197737" y2="100.7725132973878" /><path d="M 14.003168132696942 100.73817937305945 a86.0,86.0 0 0,1 10.791469493833604,-42.45332614584628" fill="none" id="id34" stroke="none" /><text fill="#e1ed5e" style="font-size:6.75px; font-family:Arial;" text-anchor="middle"><textPath startOffset="22.145653131862435" xlink:href="#id34">October</textPath></text><line stroke="#e1ed5e" stroke-width="0.3" x1="26.387840678322718" x2="22.05771365940052" y1="57.49999999999999" y2="54.99999999999999" /><path d="M 25.521815274538284 56.99999999999999 a86.0,86.0 0 0,1 29.574782752854787,-30.34633250058573" fill="none" id="id35" stroke="none" /><text fill="#e1ed5e" style="font-size:6.75px; font-family:Arial;" text-anchor="middle"><textPath startOffset="21.40746469413373" xlink:href="#id35">November</textPath></text><line stroke="#e1ed5e" stroke-width="0.3" x1="56.869717070023135" x2="54.33264160355391" y1="26.7553504044142" y2="22.446841604673864" /><path d="M 56.362301976729285 25.89364864446614 a86.0,86.0 0 0,1 42.16139366436587,-11.88097634709845" fill="none" id="id36" stroke="none" /><text fill="#e1ed5e" style="font-size:6.75px; font-family:Arial;" text-anchor="middle"><textPath startOffset="22.145653131862474" xlink:href="#id36">December</textPath></text></svg>