<?xml version="1.0" encoding="utf-8" ?>
<svg baseProfile="full" height="200mm" version="1.1" viewBox="0,0,200,200" width="200mm" xmlns="http://www.w3.org/2000/svg" xmlns:ev="http://www.w3.org/2001/xml-events" xmlns:xlink="http://www.w3.org/1999/xlink"><defs /><rect fill="#1a1a1a" height="200" width="200" x="0" y="0" /><text alignment-baseline="middle" fill="#e1ed5e" style="dominant-baseline: central; font-size:9.0px; font-family:Arial;" text-anchor="middle" x="100.0" y="100.0">2025</text><line stroke="#e1ed5e" stroke-width="0.3" x1="100.0" x2="100.0" y1="15.0" y2="10.0" /><path d="M 100.0 14.0 a86.0,86.0 0 0,1 42.46469731375804,11.215312516191453" fill="none" id="id37" stroke="none" /><text fill="#e1ed5e" style="font-size:6.75px; font-family:Arial;" text-anchor="middle"><textPath startOffset="22.20632615414155" xlink:href="#id37">January</textPath></text><line stroke="#e1ed5e" stroke-width="0.3" x1="143.23703022742887" x2="145.7803849466894" y1="26.81831364943548" y2="22.513508569990506" /><path d="M 143.74570117128098 25.957352633546492 a86.0,86.0 0 0,1 28.547481713284135,27.462654790039103" fill="none" id="id38" stroke="none" /><text fill="#e1ed5e" style="font-size:6.75px; font-family:Arial;" text-anchor="middle"><textPath startOffset="19.985693538727396" xlink:href="#id38">February</textPath></text><line stroke="#e1ed5e" stroke-width="0.3" x1="172.23445277983987" x2="176.4835382374775" y1="55.19839476539836" y2="52.563006222186495" /><path d="M 173.08426987136738 54.67131705675599 a86.0,86.0 0 0,1 12.851231095245387,41.99856678651699" fill="none" id="id39" stroke="none" /><text fill="#e1ed5e" style="font-size:6.75px; font-family:Arial;" text-anchor="middle"><textPath startOffset="22.20632615414155" xlink:href="#id39">March</textPath></text><line stroke="#e1ed5e" stroke-width="0.3" x1="184.98032266829074" x2="189.97916517819016" y1="98.17113171792111" y2="98.06355123074" /><path d="M 185.9800911702706 98.14961562048488 a86.0,86.0 0 0,1 -9.607161424134198,41.387399972396054" fill="none" id="id40" stroke="none" /><text fill="#e1ed5e" style="font-size:6.75px; font-family:Arial;" text-anchor="middle"><textPath startOffset="21.466115282336823" xlink:href="#id40">April</textPath></text><line stroke="#e1ed5e" stroke-width="0.3" x1="174.80103733775053" x2="179.2010983576182" y1="140.37084112569926" y2="142.7455964860345" /><path d="M 175.68104954172406 140.8457921977663 a86.0,86.0 0 0,1 -30.038265399797805,32.042727171017184" fill="none" id="id41" stroke="none" /><text fill="#e1ed5e" style="font-size:6.75px; font-family:Arial;" text-anchor="middle"><textPath startOffset="22.206326154141568" xlink:href="#id41">May</textPath></text><line stroke="#e1ed5e" stroke-width="0.3" x1="143.8653032363475" x2="146.44561519142675" y1="172.8068346515853" y2="177.08958963109032" /><path d="M 144.38136562736335 173.6633856474863 a86.0,86.0 0 0,1 -40.68145358897372,12.25698825130547" fill="none" id="id42" stroke="none" /><text fill="#e1ed5e" style="font-size:6.75px; font-family:Arial;" text-anchor="middle"><textPath startOffset="21.466115282336833" xlink:href="#id42">June</textPath></text><path d="M 109.89434966115114 118.52300852407294 l 11.876599101400139 22.233936936350123 a46.20717274715617,46.20717274715617 0 0,0 -0.7047894190211382,0.36871251362680035 l -11.492118779852504 -22.43507886892164" fill="#ffbb11" stroke="none" /><path d="M 109.2508944713604 118.85261126421891 l 11.098966879060683 22.61884065948073 a46.195218168562555,46.195218168562555 0 0,0 -0.7168779238142869,0.3441449680305446 l -10.707976287246163 -22.806539904010833" fill="#ffbb11" stroke="none" /><path d="M 108.92500713936063 119.00905698771935 l 10.707976287246163 22.806539904010833 a46.195218168562555,46.195218168562555 0 0,0 -0.7226956005180559,0.3317541042170245 l -10.313812690960686 -22.98748107856193" fill="#ffbb11" stroke="none" /><path d="M 108.59647513512805 119.15986991738527 l 10.318706368943113 22.998388134312926 a46.20717274715617,46.20717274715617 0 0,0 -0.7284875990048139,0.31934755512661034 l -9.921298095280546 -23.172600242733992" fill="#ffbb11" stroke="none" /><path d="M 107.93186726928326 119.44442032107085 l 9.50835450600795 23.3090690123554 a46.17382576476346,46.17382576476346 0 0,0 -0.7385149958523382,0.2938703580621426 l -9.105718434113745 -23.46928621482361" fill="#ffba11" stroke="none" /><path d="M 107.59598834532513 119.57807347666477 l 9.116187393073236 23.496269148237303 a46.20276842872694,46.20276842872694 0 0,0 -0.7439300899556945,0.2812907044538499 l -8.710387082357267 -23.64970810279778" fill="#ffbb11" stroke="none" /><path d="M 107.2578585660854 119.70592522655815 l 8.703428514686122 23.630814786957725 a46.18263440162191,46.18263440162191 0 0,0 -0.748335577402868,0.2683265135521152 l -8.295373376653519 -23.7771288415498" fill="#ffba11" stroke="none" /><path d="M 106.57524785965236 119.94407469862006 l 7.884860140460595 23.916397219713655 a46.18263440162191,46.18263440162191 0 0,0 -0.7571283453308216,0.24240858684982328 l -7.472010450038833 -24.048578653223185" fill="#ffba11" stroke="none" /><path d="M 105.88484417918355 120.15858648285463 l 7.15445042671147 24.50763406350185 a46.53057555753078,46.53057555753078 0 0,0 -0.7707874746008865,0.2178322395101935 l -6.731531784005978 -24.627155096350563" fill="#ffc011" stroke="none" /><path d="M 105.53697534728816 120.25689768951611 l 6.6492477372586345 24.326120792981907 a46.21849813740275,46.21849813740275 0 0,0 -0.7692288960914888,0.2031603428704031 l -6.229528398355648 -24.436972485155895" fill="#ffbb11" stroke="none" /><path d="M 105.18746579009965 120.34920634021253 l 6.221912647962211 24.407097690321127 a46.18766790839817,46.18766790839817 0 0,0 -0.7720966240292656,0.18976256516885973 l -5.800862739189734 -24.510581513804016" fill="#ffba11" stroke="none" /><path d="M 104.48393922423573 120.51570834832081 l 5.387095016008202 24.64798577013601 a46.22982352764933,46.22982352764933 0 0,0 -0.778881252414065,0.16322213936393484 l -4.962022302164759 -24.737063890226487" fill="#ffbb11" stroke="none" /><path d="M 103.7750983002368 120.6578951692458 l 4.529710774936845 24.78724602476673 a46.19773492195068,46.19773492195068 0 0,0 -0.7834938480054444,0.13622044835604477 l -4.102367955459351 -24.86154505164378" fill="#ffbb11" stroke="none" /><path d="M 103.41894727170886 120.7198165907248 l 4.102163082908638 24.860303464296013 a46.196476545256616,46.196476545256616 0 0,0 -0.7857011737912368,0.12271036458543531 l -3.673626045508884 -24.927232136228554" fill="#ffbb11" stroke="none" /><path d="M 102.70371172650421 120.8252237178851 l 3.241003179869175 24.96368811419863 a46.17319657641643,46.17319657641643 0 0,0 -0.7890616210158928,0.09554437353755299 l -2.8108141358019023 -25.01577801646153" fill="#ffba11" stroke="none" /><path d="M 102.34483914955558 120.86867818915974 l 2.812711008547199 25.032659868205986 a46.19018466178629,46.19018466178629 0 0,0 -0.7908802267212484,0.08197796921380554 l -2.3813981852203483 -25.07736720587555" fill="#ffba11" stroke="none" /><path d="M 100.90346689309514 120.98055641714683 l 1.0851997246806895 25.20080616295228 a46.22416083252604,46.22416083252604 0 0,0 -0.7952308842718724,0.02738935956303724 l -0.651248488734165 -25.215752320941412" fill="#ffbb11" stroke="none" /><line stroke="#e1ed5e" stroke-width="0.3" x1="102.19456741930631" x2="102.32365962044197" y1="184.97166512339345" y2="189.96999836594603" /><path d="M 102.22038585953345 185.97133177190398 a86.0,86.0 0 0,1 -42.740103519485714,-10.115201625700543" fill="none" id="id43" stroke="none" /><text fill="#e1ed5e" style="font-size:6.75px; font-family:Arial;" text-anchor="middle"><textPath startOffset="22.20632615414155" xlink:href="#id43">July</textPath></text><path d="M 100.54218724476979 120.99299961872073 l 0.6501438517365615 25.17298177572256 a46.18137602492784,46.18137602492784 0 0,0 -0.7948481367444394,0.013684031504513564 l -0.2167360250994541 -25.18044328450623" fill="#ffba11" stroke="none" /><path d="M 100.18074693466247 120.99922214144158 l 0.21689307234166805 25.198689070705093 a46.199622486991785,46.199622486991785 0 0,0 -0.7952800140082297,0.0 l 0.21689307234165067 -25.198689070705093" fill="#ffbb11" stroke="none" /><path d="M 93.42475214034765 119.94407469862007 l -4.568506562494523 13.85721695795422 a35.59087776767969,35.59087776767969 0 0,0 -0.5801826043432544,-0.19682943988630086 l 4.806358899775003 -13.776524531169796" fill="#ff0000" stroke="none" /><path d="M 93.08242187328487 119.8279376855182 l -8.300347616135806 23.791386564221128 a46.19773492195068,46.19773492195068 0 0,0 -0.7485802636739428,-0.26841424934340075 l 8.708647440439474 -23.64498477383777" fill="#ffbb11" stroke="none" /><path d="M 92.06813273071674 119.44442032107085 l -9.516434587317724 23.32887676907672 a46.195218168562555,46.195218168562555 0 0,0 -0.7336868425693801,-0.30668115969776677 l 9.916592889384566 -23.161610566358984" fill="#ffbb11" stroke="none" /><path d="M 91.7346041902142 119.30500536409082 l -9.962654378681977 23.269193714030113 a46.312247201110566,46.312247201110566 0 0,0 -0.7301441694489287,-0.3200737469271875 l 10.361719222788649 -23.094255413808472" fill="#ffbc11" stroke="none" /><path d="M 91.07499286063937 119.00905698771935 l -10.708778503030349 22.808248515031508 a46.19710573360365,46.19710573360365 0 0,0 -0.716907215887372,-0.3441590300057066 l 11.099798386917962 -22.620535208526242" fill="#ffbb11" stroke="none" /><path d="M 90.7491055286396 118.85261126421891 l -11.104787434061683 22.630702502799306 a46.20843112385023,46.20843112385023 0 0,0 -0.7110511404658338,-0.3565358030091075 l 11.492692482210275 -22.436198858880896" fill="#ffbb11" stroke="none" /><line stroke="#e1ed5e" stroke-width="0.3" x1="58.666819895761336" x2="56.23545636021788" y1="174.27360380694188" y2="178.64263932499728" /><path d="M 58.180547188652646 175.14741091055294 a86.0,86.0 0 0,1 -31.652253787137756,-30.449443065178592" fill="none" id="id44" stroke="none" /><text fill="#e1ed5e" style="font-size:6.75px; font-family:Arial;" text-anchor="middle"><textPath startOffset="22.20632615414155" xlink:href="#id44">August</textPath></text><path d="M 88.24862548938628 117.40417183066458 l -14.090523462176611 20.868528298390967 a46.180117648233775,46.180117648233775 0 0,0 -0.6549728623253045,-0.45049630706875876 l 14.447653209124805 -20.622891201957106" fill="#ffba11" stroke="none" /><path d="M 86.51685102203217 116.09983520530335 l -16.17468870943046 19.313724349143822 a46.19207222682739,46.19207222682739 0 0,0 -0.6051920846688731,-0.5157578239167057 l 16.50474627067639 -19.032442135004164" fill="#ffba11" stroke="none" /><path d="M 86.24171649860922 115.8653595955263 l -16.507219571149033 19.03529422054102 a46.19584735690959,46.19584735690959 0 0,0 -0.5962732233357306,-0.5261417920948833 l 16.83243514739135 -18.748329286673847" fill="#ffbb11" stroke="none" /><path d="M 85.97065885151581 115.62618273729859 l -13.478978595864609 15.013177056705457 a41.17618272428567,41.17618272428567 0 0,0 -0.5233305581117601,-0.4780500567873197 l 13.735408703443223 -14.778934233331562" fill="#ff6509" stroke="none" /><path d="M 85.70375840098266 115.38237550388516 l -17.134672852584885 18.4364519953835 a46.16942144633423,46.16942144633423 0 0,0 -0.5774786933742906,-0.5460421489880484 l 17.449487380349993 -18.13877520964952" fill="#ffba11" stroke="none" /><path d="M 85.44109423537348 115.13401014063109 l -17.485692351291398 18.17641034557435 a46.22164407913792,46.22164407913792 0 0,0 -0.5686363785292556,-0.5565303784837924 l 17.79597868219645 -17.872729864167987" fill="#ffbb11" stroke="none" /><path d="M 84.9287848128048 114.62390073753433 l -18.06260959471267 17.526510403642618 a46.168163069640165,46.168163069640165 0 0,0 -0.5485073438449134,-0.5751077571179287 l 18.361623489936537 -17.21299552994219" fill="#ffba11" stroke="none" /><path d="M 84.67929136418377 114.36230785411682 l -18.40431319730796 17.253014744068953 a46.226677585914175,46.226677585914175 0 0,0 -0.5392090819568096,-0.5852049633770531 l 18.698568687260497 -16.933658525890557" fill="#ffbb11" stroke="none" /><path d="M 84.43433777217949 114.09645910891817 l -18.66032649061373 16.899025912553817 a46.17508414145752,46.17508414145752 0 0,0 -0.5284653733401272,-0.5937364491705963 l 18.948450713602195 -16.57531529364236" fill="#ffba11" stroke="none" /><path d="M 84.19399662182784 113.82643327865904 l -18.95697495914965 16.58277194852803 a46.1864095317041,46.1864095317041 0 0,0 -0.5182939696275072,-0.6028929790544892 l 19.23961143834794 -16.254001870312013" fill="#ffba11" stroke="none" /><path d="M 83.95833913139862 113.55231037782056 l -19.26172040977347 16.27267996389269 a46.21535219566759,46.21535219566759 0 0,0 -0.5081576042051754,-0.6121085696070363 l 19.538974013872185 -15.93871013717189" fill="#ffbb11" stroke="none" /><path d="M 83.50135304334701 112.99209946851258 l -19.803022972280022 15.594178414088306 a46.205914370462104,46.205914370462104 0 0,0 -0.48668729823580487,-0.6291089390778004 l 20.068517087733895 -15.250991480897252" fill="#ffbb11" stroke="none" /><path d="M 83.28015986056508 112.70617746262583 l -20.08003891427387 15.259747448148712 a46.22038570244385,46.22038570244385 0 0,0 -0.475935126531479,-0.6375928781957195 l 20.339735307500437 -14.911841690443683" fill="#ffbb11" stroke="none" /><path d="M 83.06392112726016 112.41649034213515 l -20.31030449600869 14.890264831396538 a46.18389277831597,46.18389277831597 0 0,0 -0.4645224486446944,-0.6451810528859893 l 20.563606737028994 -14.53845017305941" fill="#ffba11" stroke="none" /><path d="M 82.44556493220864 111.52570212397912 l -21.100771419410616 13.854117493790557 a46.24240729458998,46.24240729458998 0 0,0 -0.4311446882865974,-0.6691461306886073 l 21.33612097107426 -13.488849763180502" fill="#ffbb11" stroke="none" /><line stroke="#e1ed5e" stroke-width="0.3" x1="26.63291911575756" x2="22.317208475507996" y1="142.92168965132927" y2="145.44649492493687" /><path d="M 25.769776987707644 143.4266507060508 a86.0,86.0 0 0,1 -11.730757126820373,-40.83630448921669" fill="none" id="id45" stroke="none" /><text fill="#e1ed5e" style="font-size:6.75px; font-family:Arial;" text-anchor="middle"><textPath startOffset="21.46611528233685" xlink:href="#id45">September</textPath></text><path d="M 81.87401531095188 110.60418214915194 l -21.77909588585417 12.741349161404997 a46.232340281037466,46.232340281037466 0 0,0 -0.3959425767975539,-0.6903592567456635 l 21.9951904588041 -12.364570058801027" fill="#ffbb11" stroke="none" /><path d="M 81.69416730710424 110.29060199501025 l -21.98751191439537 12.36025357422822 a46.22353164417901,46.22353164417901 0 0,0 -0.38392735034329273,-0.6969396601103927 l 22.19701567419018 -11.979943395720007" fill="#ffbb11" stroke="none" /><path d="M 81.51974371655577 109.97397251340807 l -22.16047190820708 11.960220372842969 a46.18200521327488,46.18200521327488 0 0,0 -0.37153971171085837,-0.7028131161608044 l 22.36306412814282 -11.576992241596038" fill="#ffba11" stroke="none" /><path d="M 81.18737489456691 109.33194174019688 l -22.571430025678914 11.196484744265423 a46.19584735690959,46.19584735690959 0 0,0 -0.34723162205770103,-0.7153999880480432 l 22.760814904351335 -10.806295800252094" fill="#ffbb11" stroke="none" /><path d="M 81.02952815118164 109.00673069616217 l -22.775592808896544 10.813311999298328 a46.21220625393242,46.21220625393242 0 0,0 -0.33498432398484856,-0.7215264322588727 l 22.958351749721217 -10.419665499760628" fill="#ffbb11" stroke="none" /><path d="M 80.73074385275274 108.34839909993369 l -23.114100983067576 10.014176902743813 a46.19018466178629,46.19018466178629 0 0,0 -0.30980200895994137,-0.7322804351472817 l 23.283053973219825 -9.614821941930373" fill="#ffba11" stroke="none" /><path d="M 80.58989483394504 108.01547362559985 l -23.279564655509784 9.613381015472896 a46.1864095317041,46.1864095317041 0 0,0 -0.29712681831289955,-0.7374443958595935 l 23.441594088080073 -9.211237251770498" fill="#ffba11" stroke="none" /><path d="M 80.32549172779594 107.34259656027581 l -59.02352481661217 22.027789680827432 a84.0,84.0 0 0,0 -0.4939029559791024,-1.3590088119755315 l 59.3939520335965 -21.008533071845783" fill="#4dd2ff" stroke="none" /><path d="M 80.20201598880116 107.00284435728193 l -23.75663173451787 8.403077525266644 a46.19899329864475,46.19899329864475 0 0,0 -0.2587345339577603,-0.7520036666319726 l 23.89775709941886 -7.992901155545374" fill="#ffbb11" stroke="none" /><line stroke="#e1ed5e" stroke-width="0.3" x1="15.007084014347285" x2="10.007500721073583" y1="101.09737516637583" y2="101.16192664675087" /><path d="M 14.007167355692545 101.11028546245083 a86.0,86.0 0 0,1 10.666146001902534,-42.60595125391555" fill="none" id="id46" stroke="none" /><text fill="#e1ed5e" style="font-size:6.75px; font-family:Arial;" text-anchor="middle"><textPath startOffset="22.20632615414155" xlink:href="#id46">October</textPath></text><line stroke="#e1ed5e" stroke-width="0.3" x1="26.266209847984243" x2="21.928928074336255" y1="57.711370442889674" y2="55.22380399835377" /><path d="M 25.398753493254645 57.213857153982495 a86.0,86.0 0 0,1 29.58750427330803,-30.492523968695096" fill="none" id="id47" stroke="none" /><text fill="#e1ed5e" style="font-size:6.75px; font-family:Arial;" text-anchor="middle"><textPath startOffset="21.46611528233685" xlink:href="#id47">November</textPath></text><line stroke="#e1ed5e" stroke-width="0.3" x1="56.762969772571076" x2="54.21961505331055" y1="26.818313649435495" y2="22.513508569990535" /><path d="M 56.25429882871897 25.957352633546506 a86.0,86.0 0 0,1 42.265352541879196,-11.944610805530505" fill="none" id="id48" stroke="none" /><text fill="#e1ed5e" style="font-size:6.75px; font-family:Arial;" text-anchor="middle"><textPath startOffset="22.20632615414155" xlink:href="#id48">December</textPath></text></svg>