<?xml version="1.0" encoding="utf-8" ?>
<svg baseProfile="full" height="200mm" version="1.1" viewBox="0,0,200,200" width="200mm" xmlns="http://www.w3.org/2000/svg" xmlns:ev="http://www.w3.org/2001/xml-events" xmlns:xlink="http://www.w3.org/1999/xlink"><defs /><rect fill="#1a1a1a" height="200" width="200" x="0" y="0" /><text alignment-baseline="middle" fill="#e1ed5e" style="dominant-baseline: central; font-size:9.0px; font-family:Arial;" text-anchor="middle" x="100.0" y="100.0">2024</text><line stroke="#e1ed5e" stroke-width="0.3" x1="100.0" x2="100.0" y1="15.0" y2="10.0" /><path d="M 100.0 14.0 a86.0,86.0 0 0,1 42.35913384403234,11.155469271406648" fill="none" id="id25" stroke="none" /><text fill="#e1ed5e" style="font-size:6.75px; font-family:Arial;" text-anchor="middle"><textPath startOffset="22.145653131862478" xlink:href="#id25">January</textPath></text><line stroke="#e1ed5e" stroke-width="0.3" x1="143.13028292997686" x2="145.6673583964461" y1="26.7553504044142" y2="22.446841604673864" /><path d="M 143.63769802327073 25.89364864446614 a86.0,86.0 0 0,1 29.32050498858742,28.57503671076993" fill="none" id="id26" stroke="none" /><text fill="#e1ed5e" style="font-size:6.75px; font-family:Arial;" text-anchor="middle"><textPath startOffset="20.669276256404974" xlink:href="#id26">February</textPath></text><line stroke="#e1ed5e" stroke-width="0.3" x1="172.87174338648825" x2="177.1583165268699" y1="56.24261187166439" y2="53.66864786411523" /><path d="M 173.72905801456457 55.72781907015455 a86.0,86.0 0 0,1 12.242430191666344,42.057860355516425" fill="none" id="id27" stroke="none" /><text fill="#e1ed5e" style="font-size:6.75px; font-family:Arial;" text-anchor="middle"><textPath startOffset="22.145653131862474" xlink:href="#id27">March</textPath></text><line stroke="#e1ed5e" stroke-width="0.3" x1="184.99686870605535" x2="189.99668451229388" y1="99.2704041080226" y2="99.22748670261217" /><path d="M 185.99683186730306 99.26182062694052 a86.0,86.0 0 0,1 -10.086455211305974,41.156179273409016" fill="none" id="id28" stroke="none" /><text fill="#e1ed5e" style="font-size:6.75px; font-family:Arial;" text-anchor="middle"><textPath startOffset="21.40746469413373" xlink:href="#id28">April</textPath></text><path d="M 119.31412917781788 108.2440532568976 l 21.80410653795494 9.306876528734005 a44.70731981139136,44.70731981139136 0 0,0 -0.30734391459983684,0.7032630234459235 l -21.641128741338136 -9.679801621955772" fill="#ff0000" stroke="none" /><path d="M 119.16976305983485 108.57439118712176 l 28.762535742871727 12.865116393101562 a52.508644562532744,52.508644562532744 0 0,0 -0.3751005911325714,0.819662486503381 l -28.5374506868841 -13.356967861819632" fill="#ffaa0f" stroke="none" /><line stroke="#e1ed5e" stroke-width="0.3" x1="174.33088141563837" x2="178.70328620479359" y1="141.23008692659167" y2="143.65538615756765" /><path d="M 175.20536237346943 141.71514677278685 a86.0,86.0 0 0,1 -30.301960400862466,31.631185727798858" fill="none" id="id29" stroke="none" /><text fill="#e1ed5e" style="font-size:6.75px; font-family:Arial;" text-anchor="middle"><textPath startOffset="22.145653131862474" xlink:href="#id29">May</textPath></text><path d="M 116.79662413953412 112.60449989151573 l 25.252764568736726 18.950145316280388 a52.57229997754659,52.57229997754659 0 0,0 -0.5478735188582103,0.7171840231616283 l -24.923739072524214 -19.380850252682894" fill="#ffab0f" stroke="none" /><path d="M 116.57777611688842 112.89097897827486 l 24.895201623928415 19.358659360047586 a52.536149988773296,52.536149988773296 0 0,0 -0.5597190646351681,0.7071867535872889 l -24.559216128651688 -19.783166057549558" fill="#ffab0f" stroke="none" /><path d="M 116.35404254752997 113.17365903436017 l 24.635104957178505 19.844296725922458 a52.63359778459696,52.63359778459696 0 0,0 -0.57283696136116,0.6987679508735662 l -24.290821176578717 -20.264266958494517" fill="#ffad10" stroke="none" /><path d="M 115.89218393027572 113.72728997021213 l 23.904290131483503 20.647956480155152 a52.587231494648606,52.587231494648606 0 0,0 -0.5959609177511896,0.678094125364101 l -23.54631814977373 -21.05526288333055" fill="#ffac0f" stroke="none" /><path d="M 115.6541949942343 113.99807769240083 l 23.516441495904033 21.028546995211677 a52.547152159269515,52.547152159269515 0 0,0 -0.6070504727643029,0.6672548091586064 l -23.15199332229785 -21.429139379927953" fill="#ffab0f" stroke="none" /><path d="M 115.41159269507618 114.26474011684316 l 23.15603048826094 21.432876120472 a52.55265324451763,52.55265324451763 0 0,0 -0.6184800795744639,0.6568044117428181 l -22.784694574950212 -21.827221992159313" fill="#ffab0f" stroke="none" /><path d="M 115.16444852881244 114.52719865689866 l 23.229038680857713 22.252893594148375 a53.16798892298481,53.16798892298481 0 0,0 -0.6370365604424124,0.6536556308718372 l -22.843615319264494 -22.64837191708795" fill="#ffb811" stroke="none" /><path d="M 114.13192950727249 115.5334660781643 l 21.21375976069237 23.317638080735147 a52.52357607963476,52.52357607963476 0 0,0 -0.6721391337571865,0.6010309580212496 l -20.810355600111805 -23.678364568639783" fill="#ffaa0f" stroke="none" /><path d="M 113.86319453409587 115.77377054828091 l 20.825400605780867 23.69548302331758 a52.54636628994835,52.54636628994835 0 0,0 -0.6826536660854885,0.5896599778040236 l -20.415567459932525 -24.049487133586318" fill="#ffab0f" stroke="none" /><path d="M 113.59037401385872 116.0094264158162 l 20.46083141050634 24.102807953547686 a52.61630865953147,52.61630865953147 0 0,0 -0.6935973656484784,0.5786235910691023 l -20.044059710695965 -24.45049372852866" fill="#ffac0f" stroke="none" /><path d="M 113.31354834802062 116.24036423190432 l 19.97231541902188 24.36297735814492 a52.50314347728463,52.50314347728463 0 0,0 -0.7019150992940623,0.5654131180284596 l -19.551149549372564 -24.702238769966787" fill="#ffaa0f" stroke="none" /><path d="M 113.03279911837588 116.46651593811092 l 19.534567138998163 24.681287436163338 a52.47642392036524,52.47642392036524 0 0,0 -0.7111556375638977,0.5529989251561087 l -19.108001556799035 -25.01298741294024" fill="#ffa90f" stroke="none" /><path d="M 112.7482090630111 116.68781488649013 l 19.140442175625648 25.05545322434213 a52.52986303420403,52.52986303420403 0 0,0 -0.721277571373312,0.5412601362394825 l -18.70751161534157 -25.38033238784563" fill="#ffab0f" stroke="none" /><path d="M 112.16784306229584 117.11559508785304 l 18.256773435359978 25.680438195209177 a52.508644562532744,52.508644562532744 0 0,0 -0.7391339565950961,0.5159729057392772 l -17.813244387591126 -25.990055916753576" fill="#ffaa0f" stroke="none" /><path d="M 111.5731344415666 117.5232005979908 l 17.364032601067652 26.29135849020451 a52.50785869321159,52.50785869321159 0 0,0 -0.7563991273388182,0.49028877578602936 l -16.910147841471822 -26.585561107694435" fill="#ffaa0f" stroke="none" /><path d="M 110.96478420261333 117.91015095944535 l 16.44594531998885 26.86321571942855 a52.497642392036525,52.497642392036525 0 0,0 -0.772633410540009,0.46394416346827505 l -15.982379152891406 -27.14157388343275" fill="#ffaa0f" stroke="none" /><line stroke="#e1ed5e" stroke-width="0.3" x1="143.1302829299769" x2="145.66735839644613" y1="173.24464959558577" y2="177.55315839532614" /><path d="M 143.63769802327073 174.10635135553383 a86.0,86.0 0 0,1 -40.68552437913181,11.842963189579606" fill="none" id="id30" stroke="none" /><text fill="#e1ed5e" style="font-size:6.75px; font-family:Arial;" text-anchor="middle"><textPath startOffset="21.407464694133747" xlink:href="#id30">June</textPath></text><path d="M 110.65571695917076 118.09573695890943 l 15.996335821313343 27.165275357632353 a52.52514781827708,52.52514781827708 0 0,0 -0.7808927036005742,0.4508486126320079 l -15.52765064985237 -27.435870867540533" fill="#ffaa0f" stroke="none" /><path d="M 110.34350942703117 118.27599006163325 l 15.52416694411016 27.429715493296282 a52.518074994386645,52.518074994386645 0 0,0 -0.7884108747064037,0.4373182219681862 l -15.051011881247662 -27.692166630697614" fill="#ffaa0f" stroke="none" /><path d="M 110.02825361518725 118.45085714620011 l 15.054764689276695 27.699071374783454 a52.525933687598226,52.525933687598226 0 0,0 -0.7959209314594088,0.42378306557738815 l -14.577054942030731 -27.953424908083413" fill="#ffaa0f" stroke="none" /><path d="M 109.71004243097381 118.62028667847754 l 29.089066189908927 55.78211995629679 a83.91119676670908,83.91119676670908 0 0,0 -1.28293338453455,0.6550749274056175 l -28.127205583660796 -56.273252835375246" fill="#4dd3ff" stroke="none" /><path d="M 109.3889696526874 118.78422872680471 l 28.131773228503434 56.282391184804496 a83.92141306788415,83.92141306788415 0 0,0 -1.2941471185465958,0.6330322062202567 l -27.16146586069477 -56.75701714112198" fill="#4dd3ff" stroke="none" /><path d="M 108.73861861582097 119.09545874513695 l 26.180210707536077 57.2084851717472 a83.9143402439937,83.9143402439937 0 0,0 -1.3150040325005241,0.588184577561451 l -25.194293272179927 -57.6494735002185" fill="#4dd3ff" stroke="none" /><path d="M 108.4095320186766 119.2426549942271 l 25.1801315724254 57.61706875975221 a83.87897612454157,83.87897612454157 0 0,0 -1.3243488768340392,0.5652857848683924 l -24.18734762042093 -58.04082919428" fill="#4dd4ff" stroke="none" /><path d="M 107.74402155503746 119.51999308798841 l 11.597485166194309 29.233238656844843 a52.449704363445846,52.449704363445846 0 0,0 -0.8397640681430789,0.32483878174459374 l -11.0939488355577 -29.428017326727478" fill="#ffa90f" stroke="none" /><path d="M 107.407793817531 119.65005319985036 l 11.157154321314644 29.595677386961214 a52.62888256867001,52.62888256867001 0 0,0 -0.8481040379789974,0.3114355502108713 l -10.64746113168152 -29.782843786180806" fill="#ffad10" stroke="none" /><path d="M 107.06938296918513 119.77432235084164 l 21.176667110783676 59.23490686392563 a83.90648155078212,83.90648155078212 0 0,0 -1.3604606026691513,0.4732388186918705 l -20.156700736069503 -59.589704115186095" fill="#4dd3ff" stroke="none" /><path d="M 106.72888874123015 119.89276391827305 l 20.186666223690434 59.678291754819156 a84.0,84.0 0 0,0 -1.369909049409063,0.4503163143919231 l -19.159234436633636 -60.016028990613094" fill="#4dd2ff" stroke="none" /><path d="M 106.38641147887787 120.00534299687104 l 19.12242928104097 59.90073736492945 a83.87897612454157,83.87897612454157 0 0,0 -1.3754529111249174,0.4261188278214812 l -18.091335737044425 -60.220172780557576" fill="#4dd4ff" stroke="none" /><path d="M 106.0420521117495 120.11202640906438 l 18.11010268282974 60.28264183945858 a83.94420327819773,83.94420327819773 0 0,0 -1.383640261111964,0.402757514620459 l -17.07260240933617 -60.58464304838155" fill="#4dd3ff" stroke="none" /><line stroke="#e1ed5e" stroke-width="0.3" x1="101.45913802915013" x2="101.54496967792366" y1="184.9874750549273" y2="189.98673829345242" /><path d="M 101.47630435890484 185.9873277026323 a86.0,86.0 0 0,1 -42.54439059252881,-10.42667462771756" fill="none" id="id31" stroke="none" /><text fill="#e1ed5e" style="font-size:6.75px; font-family:Arial;" text-anchor="middle"><textPath startOffset="22.145653131862474" xlink:href="#id31">July</textPath></text><line stroke="#e1ed5e" stroke-width="0.3" x1="58.13341422392154" x2="55.67067388415222" y1="173.97424548756322" y2="178.32567169271397" /><path d="M 57.64086615596768 174.84453072859336 a86.0,86.0 0 0,1 -31.369924170532247,-30.572349798747897" fill="none" id="id32" stroke="none" /><text fill="#e1ed5e" style="font-size:6.75px; font-family:Arial;" text-anchor="middle"><textPath startOffset="22.145653131862474" xlink:href="#id32">August</textPath></text><line stroke="#e1ed5e" stroke-width="0.3" x1="26.387840678322732" x2="22.057713659400548" y1="142.50000000000003" y2="145.00000000000006" /><path d="M 25.521815274538298 143.00000000000003 a86.0,86.0 0 0,1 -11.493303480769221,-40.785679425670985" fill="none" id="id33" stroke="none" /><text fill="#e1ed5e" style="font-size:6.75px; font-family:Arial;" text-anchor="middle"><textPath startOffset="21.40746469413373" xlink:href="#id33">September</textPath></text><line stroke="#e1ed5e" stroke-width="0.3" x1="15.003131293944662" x2="10.003315487706104" y1="100.72959589197737" y2="100.7725132973878" /><path d="M 14.003168132696942 100.73817937305945 a86.0,86.0 0 0,1 10.791469493833604,-42.45332614584628" fill="none" id="id34" stroke="none" /><text fill="#e1ed5e" style="font-size:6.75px; font-family:Arial;" text-anchor="middle"><textPath startOffset="22.145653131862435" xlink:href="#id34">October</textPath></text><line stroke="#e1ed5e" stroke-width="0.3" x1="26.387840678322718" x2="22.05771365940052" y1="57.49999999999999" y2="54.99999999999999" /><path d="M 25.521815274538284 56.99999999999999 a86.0,86.0 0 0,1 29.574782752854787,-30.34633250058573" fill="none" id="id35" stroke="none" /><text fill="#e1ed5e" style="font-size:6.75px; font-family:Arial;" text-anchor="middle"><textPath startOffset="21.40746469413373" xlink:href="#id35">November</textPath></text><line stroke="#e1ed5e" stroke-width="0.3" x1="56.869717070023135" x2="54.33264160355391" y1="26.7553504044142" y2="22.446841604673864" /><path d="M 56.362301976729285 25.89364864446614 a86.0,86.0 0 0,1 42.16139366436587,-11.88097634709845" fill="none" id="id36" stroke="none" /><text fill="#e1ed5e" style="font-size:6.75px; font-family:Arial;" text-anchor="middle"><textPath startOffset="22.145653131862474" xlink:href="#id36">December</textPath></text></svg>